<svg width="190" height="43" viewBox="0 0 190 43" fill="none" xmlns="http://www.w3.org/2000/svg">
<path d="M48.8026 18.3984V14.0784C48.8026 13.7158 48.888 13.3904 49.0586 13.1024C49.2293 12.8038 49.4586 12.5691 49.7466 12.3984C50.0453 12.2278 50.376 12.1424 50.7386 12.1424H58.4986C58.6693 12.1424 58.8133 12.0838 58.9306 11.9664C59.0586 11.8384 59.1226 11.6891 59.1226 11.5184V8.81444C59.1226 8.64377 59.0586 8.49977 58.9306 8.38244C58.8133 8.25444 58.6693 8.19044 58.4986 8.19044H50.7386C50.568 8.19044 50.4186 8.25444 50.2906 8.38244C50.1733 8.49977 50.1146 8.64377 50.1146 8.81444V9.26244H48.8026V8.81444C48.8026 8.45177 48.888 8.12644 49.0586 7.83844C49.2293 7.53977 49.4586 7.3051 49.7466 7.13444C50.0453 6.9531 50.376 6.86244 50.7386 6.86244H58.4986C58.8506 6.86244 59.1706 6.9531 59.4586 7.13444C59.7573 7.3051 59.992 7.53977 60.1626 7.83844C60.344 8.12644 60.4346 8.45177 60.4346 8.81444V11.5184C60.4346 11.8704 60.344 12.1958 60.1626 12.4944C59.992 12.7824 59.7573 13.0171 59.4586 13.1984C59.1706 13.3691 58.8506 13.4544 58.4986 13.4544H50.7386C50.568 13.4544 50.4186 13.5184 50.2906 13.6464C50.1733 13.7638 50.1146 13.9078 50.1146 14.0784V16.4624C50.1146 16.6331 50.1733 16.7824 50.2906 16.9104C50.4186 17.0278 50.568 17.0864 50.7386 17.0864H60.4346V18.3984H48.8026ZM64.0199 18.3984C63.6572 18.3984 63.3265 18.3131 63.0279 18.1424C62.7399 17.9611 62.5105 17.7264 62.3399 17.4384C62.1692 17.1398 62.0839 16.8144 62.0839 16.4624V8.83044C62.0839 8.46777 62.1692 8.14244 62.3399 7.85444C62.5105 7.55577 62.7399 7.3211 63.0279 7.15044C63.3265 6.9691 63.6572 6.87844 64.0199 6.87844H71.7799C72.1319 6.87844 72.4519 6.9691 72.7399 7.15044C73.0385 7.3211 73.2732 7.55577 73.4439 7.85444C73.6252 8.14244 73.7159 8.46777 73.7159 8.83044V16.4624C73.7159 16.8144 73.6252 17.1398 73.4439 17.4384C73.2732 17.7264 73.0385 17.9611 72.7399 18.1424C72.4519 18.3131 72.1319 18.3984 71.7799 18.3984H64.0199ZM63.5559 17.0864H71.7799C71.9505 17.0864 72.0945 17.0278 72.2119 16.9104C72.3399 16.7824 72.4039 16.6331 72.4039 16.4624V9.79044L63.5559 17.0864ZM63.3959 15.5024L72.2279 8.20644H64.0199C63.8492 8.20644 63.6999 8.27044 63.5719 8.39844C63.4545 8.51577 63.3959 8.65977 63.3959 8.83044V15.5024ZM75.4276 18.3984V14.0784C75.4276 13.7158 75.513 13.3904 75.6836 13.1024C75.8543 12.8038 76.0836 12.5691 76.3716 12.3984C76.6703 12.2278 77.001 12.1424 77.3636 12.1424H85.1236C85.2943 12.1424 85.4383 12.0838 85.5556 11.9664C85.6836 11.8384 85.7476 11.6891 85.7476 11.5184V8.81444C85.7476 8.64377 85.6836 8.49977 85.5556 8.38244C85.4383 8.25444 85.2943 8.19044 85.1236 8.19044H77.3636C77.193 8.19044 77.0436 8.25444 76.9156 8.38244C76.7983 8.49977 76.7396 8.64377 76.7396 8.81444V9.26244H75.4276V8.81444C75.4276 8.45177 75.513 8.12644 75.6836 7.83844C75.8543 7.53977 76.0836 7.3051 76.3716 7.13444C76.6703 6.9531 77.001 6.86244 77.3636 6.86244H85.1236C85.4756 6.86244 85.7956 6.9531 86.0836 7.13444C86.3823 7.3051 86.617 7.53977 86.7876 7.83844C86.969 8.12644 87.0596 8.45177 87.0596 8.81444V11.5184C87.0596 11.8704 86.969 12.1958 86.7876 12.4944C86.617 12.7824 86.3823 13.0171 86.0836 13.1984C85.7956 13.3691 85.4756 13.4544 85.1236 13.4544H77.3636C77.193 13.4544 77.0436 13.5184 76.9156 13.6464C76.7983 13.7638 76.7396 13.9078 76.7396 14.0784V16.4624C76.7396 16.6331 76.7983 16.7824 76.9156 16.9104C77.0436 17.0278 77.193 17.0864 77.3636 17.0864H87.0596V18.3984H75.4276ZM90.6449 18.3984C90.2822 18.3984 89.9515 18.3131 89.6529 18.1424C89.3649 17.9611 89.1355 17.7264 88.9649 17.4384C88.7942 17.1398 88.7089 16.8144 88.7089 16.4624V15.9984H90.0209V16.4624C90.0209 16.6331 90.0795 16.7824 90.1969 16.9104C90.3249 17.0278 90.4742 17.0864 90.6449 17.0864H98.4049C98.5755 17.0864 98.7195 17.0278 98.8369 16.9104C98.9649 16.7824 99.0289 16.6331 99.0289 16.4624V13.7424C99.0289 13.5718 98.9649 13.4278 98.8369 13.3104C98.7195 13.1824 98.5755 13.1184 98.4049 13.1184H88.7089V6.86244H100.341V8.19044H90.6449C90.4742 8.19044 90.3249 8.25444 90.1969 8.38244C90.0795 8.49977 90.0209 8.64377 90.0209 8.81444V11.1664C90.0209 11.3371 90.0795 11.4864 90.1969 11.6144C90.3249 11.7424 90.4742 11.8064 90.6449 11.8064H98.4049C98.7569 11.8064 99.0769 11.8918 99.3649 12.0624C99.6635 12.2331 99.8982 12.4678 100.069 12.7664C100.25 13.0544 100.341 13.3798 100.341 13.7424V16.4624C100.341 16.8144 100.25 17.1398 100.069 17.4384C99.8982 17.7264 99.6635 17.9611 99.3649 18.1424C99.0769 18.3131 98.7569 18.3984 98.4049 18.3984H90.6449ZM106.334 18.3984V6.89444H115.934C116.286 6.89444 116.606 6.9851 116.894 7.16644C117.192 7.3371 117.427 7.56644 117.598 7.85444C117.768 8.14244 117.854 8.46244 117.854 8.81444V12.1904C117.854 12.5424 117.768 12.8624 117.598 13.1504C117.427 13.4384 117.192 13.6731 116.894 13.8544C116.606 14.0251 116.286 14.1104 115.934 14.1104H107.63V18.3984H106.334ZM108.254 12.7984H115.934C116.104 12.7984 116.248 12.7398 116.366 12.6224C116.494 12.5051 116.558 12.3611 116.558 12.1904V8.81444C116.558 8.64377 116.494 8.49977 116.366 8.38244C116.248 8.25444 116.104 8.19044 115.934 8.19044H108.254C108.083 8.19044 107.934 8.25444 107.806 8.38244C107.688 8.49977 107.63 8.64377 107.63 8.81444V12.1904C107.63 12.3611 107.688 12.5051 107.806 12.6224C107.934 12.7398 108.083 12.7984 108.254 12.7984ZM120.862 18.3984C120.51 18.3984 120.184 18.3131 119.886 18.1424C119.598 17.9611 119.363 17.7264 119.182 17.4384C119.011 17.1398 118.926 16.8144 118.926 16.4624V13.1024H127.054V11.0544C127.054 10.8838 126.99 10.7398 126.862 10.6224C126.744 10.4944 126.6 10.4304 126.43 10.4304H118.926V9.11844H126.43C126.792 9.11844 127.118 9.2091 127.406 9.39044C127.704 9.5611 127.939 9.79577 128.11 10.0944C128.291 10.3824 128.382 10.7024 128.382 11.0544V18.3984H120.862ZM120.862 17.0864H127.054V14.4144H120.238V16.4624C120.238 16.6331 120.296 16.7824 120.414 16.9104C120.542 17.0278 120.691 17.0864 120.862 17.0864ZM129.957 18.3984V11.0544C129.957 10.7024 130.042 10.3824 130.213 10.0944C130.394 9.79577 130.629 9.5611 130.917 9.39044C131.216 9.2091 131.541 9.11844 131.893 9.11844H137.109V10.4304H131.893C131.722 10.4304 131.573 10.4944 131.445 10.6224C131.328 10.7398 131.269 10.8838 131.269 11.0544V18.3984H129.957ZM140.097 18.3984C139.734 18.3984 139.403 18.3131 139.105 18.1424C138.817 17.9611 138.587 17.7264 138.417 17.4384C138.246 17.1398 138.161 16.8144 138.161 16.4624V6.07844H139.473V9.11844H143.489V10.4304H139.473V16.4624C139.473 16.6331 139.531 16.7824 139.649 16.9104C139.777 17.0278 139.926 17.0864 140.097 17.0864H143.489V18.3984H140.097ZM146.259 22.0784V20.7504H152.051C152.222 20.7504 152.366 20.6864 152.483 20.5584C152.611 20.4411 152.675 20.2971 152.675 20.1264V18.3984H146.483C146.131 18.3984 145.806 18.3131 145.507 18.1424C145.219 17.9611 144.984 17.7264 144.803 17.4384C144.632 17.1398 144.547 16.8144 144.547 16.4624V9.15044H145.859V16.4624C145.859 16.6331 145.918 16.7824 146.035 16.9104C146.163 17.0278 146.312 17.0864 146.483 17.0864H152.051C152.222 17.0864 152.366 17.0278 152.483 16.9104C152.611 16.7824 152.675 16.6331 152.675 16.4624V9.15044H153.987V20.1264C153.987 20.4891 153.902 20.8144 153.731 21.1024C153.56 21.4011 153.326 21.6358 153.027 21.8064C152.739 21.9878 152.414 22.0784 152.051 22.0784H146.259ZM155.74 18.3984V6.87844H157.036V11.9824H166.236V6.87844H167.548V18.3984H166.236V13.2944H157.036V18.3984H155.74ZM171.222 18.3984C170.87 18.3984 170.544 18.3131 170.246 18.1424C169.958 17.9611 169.723 17.7264 169.542 17.4384C169.371 17.1398 169.286 16.8144 169.286 16.4624V9.11844H170.598V16.4624C170.598 16.6331 170.656 16.7824 170.774 16.9104C170.902 17.0278 171.051 17.0864 171.222 17.0864H176.79C176.96 17.0864 177.11 17.0278 177.238 16.9104C177.366 16.7824 177.43 16.6331 177.43 16.4624V9.11844H178.742V16.4624C178.742 16.8144 178.651 17.1398 178.47 17.4384C178.299 17.7264 178.064 17.9611 177.766 18.1424C177.478 18.3131 177.152 18.3984 176.79 18.3984H171.222ZM180.192 18.3984V6.07844H181.504V9.11844H187.712C188.064 9.11844 188.384 9.2091 188.672 9.39044C188.971 9.5611 189.205 9.79577 189.376 10.0944C189.557 10.3824 189.648 10.7024 189.648 11.0544V16.4624C189.648 16.8144 189.557 17.1398 189.376 17.4384C189.205 17.7264 188.971 17.9611 188.672 18.1424C188.384 18.3131 188.064 18.3984 187.712 18.3984H180.192ZM182.144 17.0864H187.712C187.883 17.0864 188.027 17.0278 188.144 16.9104C188.272 16.7824 188.336 16.6331 188.336 16.4624V11.0544C188.336 10.8838 188.272 10.7398 188.144 10.6224C188.027 10.4944 187.883 10.4304 187.712 10.4304H182.144C181.973 10.4304 181.824 10.4944 181.696 10.6224C181.568 10.7398 181.504 10.8838 181.504 11.0544V16.4624C181.504 16.6331 181.568 16.7824 181.696 16.9104C181.824 17.0278 181.973 17.0864 182.144 17.0864Z" fill="white"/>
<path d="M0.928109 34.0864C0.928109 33.4144 1.06411 32.8264 1.33611 32.3224C1.60811 31.8104 1.98011 31.4144 2.45211 31.1344C2.93211 30.8544 3.46811 30.7144 4.06011 30.7144C4.57211 30.7144 5.04811 30.8344 5.48811 31.0744C5.92811 31.3064 6.26411 31.6144 6.49611 31.9984V28.5184H7.60011V37.3984H6.49611V36.1624C6.28011 36.5544 5.96011 36.8784 5.53611 37.1344C5.11211 37.3824 4.61611 37.5064 4.04811 37.5064C3.46411 37.5064 2.93211 37.3624 2.45211 37.0744C1.98011 36.7864 1.60811 36.3824 1.33611 35.8624C1.06411 35.3424 0.928109 34.7504 0.928109 34.0864ZM6.49611 34.0984C6.49611 33.6024 6.39611 33.1704 6.19611 32.8024C5.99611 32.4344 5.72411 32.1544 5.38011 31.9624C5.04411 31.7624 4.67211 31.6624 4.26411 31.6624C3.85611 31.6624 3.48411 31.7584 3.14811 31.9504C2.81211 32.1424 2.54411 32.4224 2.34411 32.7904C2.14411 33.1584 2.04411 33.5904 2.04411 34.0864C2.04411 34.5904 2.14411 35.0304 2.34411 35.4064C2.54411 35.7744 2.81211 36.0584 3.14811 36.2584C3.48411 36.4504 3.85611 36.5464 4.26411 36.5464C4.67211 36.5464 5.04411 36.4504 5.38011 36.2584C5.72411 36.0584 5.99611 35.7744 6.19611 35.4064C6.39611 35.0304 6.49611 34.5944 6.49611 34.0984ZM15.4455 33.8584C15.4455 34.0664 15.4335 34.2864 15.4095 34.5184H10.1535C10.1935 35.1664 10.4135 35.6744 10.8135 36.0424C11.2215 36.4024 11.7135 36.5824 12.2895 36.5824C12.7615 36.5824 13.1535 36.4744 13.4655 36.2584C13.7855 36.0344 14.0095 35.7384 14.1375 35.3704H15.3135C15.1375 36.0024 14.7855 36.5184 14.2575 36.9184C13.7295 37.3104 13.0735 37.5064 12.2895 37.5064C11.6655 37.5064 11.1055 37.3664 10.6095 37.0864C10.1215 36.8064 9.73748 36.4104 9.45748 35.8984C9.17748 35.3784 9.03748 34.7784 9.03748 34.0984C9.03748 33.4184 9.17348 32.8224 9.44548 32.3104C9.71748 31.7984 10.0975 31.4064 10.5855 31.1344C11.0815 30.8544 11.6495 30.7144 12.2895 30.7144C12.9135 30.7144 13.4655 30.8504 13.9455 31.1224C14.4255 31.3944 14.7935 31.7704 15.0495 32.2504C15.3135 32.7224 15.4455 33.2584 15.4455 33.8584ZM14.3175 33.6304C14.3175 33.2144 14.2255 32.8584 14.0415 32.5624C13.8575 32.2584 13.6055 32.0304 13.2855 31.8784C12.9735 31.7184 12.6255 31.6384 12.2415 31.6384C11.6895 31.6384 11.2175 31.8144 10.8255 32.1664C10.4415 32.5184 10.2215 33.0064 10.1655 33.6304H14.3175ZM19.2149 37.5064C18.7109 37.5064 18.2589 37.4224 17.8589 37.2544C17.4589 37.0784 17.1429 36.8384 16.9109 36.5344C16.6789 36.2224 16.5509 35.8664 16.5269 35.4664H17.6549C17.6869 35.7944 17.8389 36.0624 18.1109 36.2704C18.3909 36.4784 18.7549 36.5824 19.2029 36.5824C19.6189 36.5824 19.9469 36.4904 20.1869 36.3064C20.4269 36.1224 20.5469 35.8904 20.5469 35.6104C20.5469 35.3224 20.4189 35.1104 20.1629 34.9744C19.9069 34.8304 19.5109 34.6904 18.9749 34.5544C18.4869 34.4264 18.0869 34.2984 17.7749 34.1704C17.4709 34.0344 17.2069 33.8384 16.9829 33.5824C16.7669 33.3184 16.6589 32.9744 16.6589 32.5504C16.6589 32.2144 16.7589 31.9064 16.9589 31.6264C17.1589 31.3464 17.4429 31.1264 17.8109 30.9664C18.1789 30.7984 18.5989 30.7144 19.0709 30.7144C19.7989 30.7144 20.3869 30.8984 20.8349 31.2664C21.2829 31.6344 21.5229 32.1384 21.5549 32.7784H20.4629C20.4389 32.4344 20.2989 32.1584 20.0429 31.9504C19.7949 31.7424 19.4589 31.6384 19.0349 31.6384C18.6429 31.6384 18.3309 31.7224 18.0989 31.8904C17.8669 32.0584 17.7509 32.2784 17.7509 32.5504C17.7509 32.7664 17.8189 32.9464 17.9549 33.0904C18.0989 33.2264 18.2749 33.3384 18.4829 33.4264C18.6989 33.5064 18.9949 33.5984 19.3709 33.7024C19.8429 33.8304 20.2269 33.9584 20.5229 34.0864C20.8189 34.2064 21.0709 34.3904 21.2789 34.6384C21.4949 34.8864 21.6069 35.2104 21.6149 35.6104C21.6149 35.9704 21.5149 36.2944 21.3149 36.5824C21.1149 36.8704 20.8309 37.0984 20.4629 37.2664C20.1029 37.4264 19.6869 37.5064 19.2149 37.5064ZM23.7204 29.7544C23.5124 29.7544 23.3364 29.6824 23.1924 29.5384C23.0484 29.3944 22.9764 29.2184 22.9764 29.0104C22.9764 28.8024 23.0484 28.6264 23.1924 28.4824C23.3364 28.3384 23.5124 28.2664 23.7204 28.2664C23.9204 28.2664 24.0884 28.3384 24.2244 28.4824C24.3684 28.6264 24.4404 28.8024 24.4404 29.0104C24.4404 29.2184 24.3684 29.3944 24.2244 29.5384C24.0884 29.6824 23.9204 29.7544 23.7204 29.7544ZM24.2484 30.8224V37.3984H23.1564V30.8224H24.2484ZM28.8215 30.7144C29.3895 30.7144 29.8855 30.8384 30.3095 31.0864C30.7415 31.3344 31.0615 31.6464 31.2695 32.0224V30.8224H32.3735V37.5424C32.3735 38.1424 32.2455 38.6744 31.9895 39.1384C31.7335 39.6104 31.3655 39.9784 30.8855 40.2424C30.4135 40.5064 29.8615 40.6384 29.2295 40.6384C28.3655 40.6384 27.6455 40.4344 27.0695 40.0264C26.4935 39.6184 26.1535 39.0624 26.0495 38.3584H27.1295C27.2495 38.7584 27.4975 39.0784 27.8735 39.3184C28.2495 39.5664 28.7015 39.6904 29.2295 39.6904C29.8295 39.6904 30.3175 39.5024 30.6935 39.1264C31.0775 38.7504 31.2695 38.2224 31.2695 37.5424V36.1624C31.0535 36.5464 30.7335 36.8664 30.3095 37.1224C29.8855 37.3784 29.3895 37.5064 28.8215 37.5064C28.2375 37.5064 27.7055 37.3624 27.2255 37.0744C26.7535 36.7864 26.3815 36.3824 26.1095 35.8624C25.8375 35.3424 25.7015 34.7504 25.7015 34.0864C25.7015 33.4144 25.8375 32.8264 26.1095 32.3224C26.3815 31.8104 26.7535 31.4144 27.2255 31.1344C27.7055 30.8544 28.2375 30.7144 28.8215 30.7144ZM31.2695 34.0984C31.2695 33.6024 31.1695 33.1704 30.9695 32.8024C30.7695 32.4344 30.4975 32.1544 30.1535 31.9624C29.8175 31.7624 29.4455 31.6624 29.0375 31.6624C28.6295 31.6624 28.2575 31.7584 27.9215 31.9504C27.5855 32.1424 27.3175 32.4224 27.1175 32.7904C26.9175 33.1584 26.8175 33.5904 26.8175 34.0864C26.8175 34.5904 26.9175 35.0304 27.1175 35.4064C27.3175 35.7744 27.5855 36.0584 27.9215 36.2584C28.2575 36.4504 28.6295 36.5464 29.0375 36.5464C29.4455 36.5464 29.8175 36.4504 30.1535 36.2584C30.4975 36.0584 30.7695 35.7744 30.9695 35.4064C31.1695 35.0304 31.2695 34.5944 31.2695 34.0984ZM37.4229 30.7024C38.2229 30.7024 38.8709 30.9464 39.3669 31.4344C39.8629 31.9144 40.1109 32.6104 40.1109 33.5224V37.3984H39.0309V33.6784C39.0309 33.0224 38.8669 32.5224 38.5389 32.1784C38.2109 31.8264 37.7629 31.6504 37.1949 31.6504C36.6189 31.6504 36.1589 31.8304 35.8149 32.1904C35.4789 32.5504 35.3109 33.0744 35.3109 33.7624V37.3984H34.2189V30.8224H35.3109V31.7584C35.5269 31.4224 35.8189 31.1624 36.1869 30.9784C36.5629 30.7944 36.9749 30.7024 37.4229 30.7024ZM47.8947 33.8584C47.8947 34.0664 47.8827 34.2864 47.8587 34.5184H42.6027C42.6427 35.1664 42.8627 35.6744 43.2627 36.0424C43.6707 36.4024 44.1627 36.5824 44.7387 36.5824C45.2107 36.5824 45.6027 36.4744 45.9147 36.2584C46.2347 36.0344 46.4587 35.7384 46.5867 35.3704H47.7627C47.5867 36.0024 47.2347 36.5184 46.7067 36.9184C46.1787 37.3104 45.5227 37.5064 44.7387 37.5064C44.1147 37.5064 43.5547 37.3664 43.0587 37.0864C42.5707 36.8064 42.1867 36.4104 41.9067 35.8984C41.6267 35.3784 41.4867 34.7784 41.4867 34.0984C41.4867 33.4184 41.6227 32.8224 41.8947 32.3104C42.1667 31.7984 42.5467 31.4064 43.0347 31.1344C43.5307 30.8544 44.0987 30.7144 44.7387 30.7144C45.3627 30.7144 45.9147 30.8504 46.3947 31.1224C46.8747 31.3944 47.2427 31.7704 47.4987 32.2504C47.7627 32.7224 47.8947 33.2584 47.8947 33.8584ZM46.7667 33.6304C46.7667 33.2144 46.6747 32.8584 46.4907 32.5624C46.3067 32.2584 46.0547 32.0304 45.7347 31.8784C45.4227 31.7184 45.0747 31.6384 44.6907 31.6384C44.1387 31.6384 43.6667 31.8144 43.2747 32.1664C42.8907 32.5184 42.6707 33.0064 42.6147 33.6304H46.7667ZM48.9281 34.0864C48.9281 33.4144 49.0641 32.8264 49.3361 32.3224C49.6081 31.8104 49.9801 31.4144 50.4521 31.1344C50.9321 30.8544 51.4681 30.7144 52.0601 30.7144C52.5721 30.7144 53.0481 30.8344 53.4881 31.0744C53.9281 31.3064 54.2641 31.6144 54.4961 31.9984V28.5184H55.6001V37.3984H54.4961V36.1624C54.2801 36.5544 53.9601 36.8784 53.5361 37.1344C53.1121 37.3824 52.6161 37.5064 52.0481 37.5064C51.4641 37.5064 50.9321 37.3624 50.4521 37.0744C49.9801 36.7864 49.6081 36.3824 49.3361 35.8624C49.0641 35.3424 48.9281 34.7504 48.9281 34.0864ZM54.4961 34.0984C54.4961 33.6024 54.3961 33.1704 54.1961 32.8024C53.9961 32.4344 53.7241 32.1544 53.3801 31.9624C53.0441 31.7624 52.6721 31.6624 52.2641 31.6624C51.8561 31.6624 51.4841 31.7584 51.1481 31.9504C50.8121 32.1424 50.5441 32.4224 50.3441 32.7904C50.1441 33.1584 50.0441 33.5904 50.0441 34.0864C50.0441 34.5904 50.1441 35.0304 50.3441 35.4064C50.5441 35.7744 50.8121 36.0584 51.1481 36.2584C51.4841 36.4504 51.8561 36.5464 52.2641 36.5464C52.6721 36.5464 53.0441 36.4504 53.3801 36.2584C53.7241 36.0584 53.9961 35.7744 54.1961 35.4064C54.3961 35.0304 54.4961 34.5944 54.4961 34.0984ZM61.7367 32.0464C61.9607 31.6544 62.2887 31.3344 62.7207 31.0864C63.1527 30.8384 63.6447 30.7144 64.1967 30.7144C64.7887 30.7144 65.3207 30.8544 65.7927 31.1344C66.2647 31.4144 66.6367 31.8104 66.9087 32.3224C67.1807 32.8264 67.3167 33.4144 67.3167 34.0864C67.3167 34.7504 67.1807 35.3424 66.9087 35.8624C66.6367 36.3824 66.2607 36.7864 65.7807 37.0744C65.3087 37.3624 64.7807 37.5064 64.1967 37.5064C63.6287 37.5064 63.1287 37.3824 62.6967 37.1344C62.2727 36.8864 61.9527 36.5704 61.7367 36.1864V37.3984H60.6447V28.5184H61.7367V32.0464ZM66.2007 34.0864C66.2007 33.5904 66.1007 33.1584 65.9007 32.7904C65.7007 32.4224 65.4287 32.1424 65.0847 31.9504C64.7487 31.7584 64.3767 31.6624 63.9687 31.6624C63.5687 31.6624 63.1967 31.7624 62.8527 31.9624C62.5167 32.1544 62.2447 32.4384 62.0367 32.8144C61.8367 33.1824 61.7367 33.6104 61.7367 34.0984C61.7367 34.5944 61.8367 35.0304 62.0367 35.4064C62.2447 35.7744 62.5167 36.0584 62.8527 36.2584C63.1967 36.4504 63.5687 36.5464 63.9687 36.5464C64.3767 36.5464 64.7487 36.4504 65.0847 36.2584C65.4287 36.0584 65.7007 35.7744 65.9007 35.4064C66.1007 35.0304 66.2007 34.5904 66.2007 34.0864ZM74.4181 30.8224L70.4581 40.4944H69.3301L70.6261 37.3264L67.9741 30.8224H69.1861L71.2501 36.1504L73.2901 30.8224H74.4181ZM83.443 29.0344V29.9224H79.807V32.7424H82.759V33.6304H79.807V37.3984H78.715V29.0344H83.443ZM84.3539 34.0864C84.3539 33.4144 84.4899 32.8264 84.7619 32.3224C85.0339 31.8104 85.4059 31.4144 85.8779 31.1344C86.3579 30.8544 86.8899 30.7144 87.4739 30.7144C88.0499 30.7144 88.5499 30.8384 88.9739 31.0864C89.3979 31.3344 89.7139 31.6464 89.9219 32.0224V30.8224H91.0259V37.3984H89.9219V36.1744C89.7059 36.5584 89.3819 36.8784 88.9499 37.1344C88.5259 37.3824 88.0299 37.5064 87.4619 37.5064C86.8779 37.5064 86.3499 37.3624 85.8779 37.0744C85.4059 36.7864 85.0339 36.3824 84.7619 35.8624C84.4899 35.3424 84.3539 34.7504 84.3539 34.0864ZM89.9219 34.0984C89.9219 33.6024 89.8219 33.1704 89.6219 32.8024C89.4219 32.4344 89.1499 32.1544 88.8059 31.9624C88.4699 31.7624 88.0979 31.6624 87.6899 31.6624C87.2819 31.6624 86.9099 31.7584 86.5739 31.9504C86.2379 32.1424 85.9699 32.4224 85.7699 32.7904C85.5699 33.1584 85.4699 33.5904 85.4699 34.0864C85.4699 34.5904 85.5699 35.0304 85.7699 35.4064C85.9699 35.7744 86.2379 36.0584 86.5739 36.2584C86.9099 36.4504 87.2819 36.5464 87.6899 36.5464C88.0979 36.5464 88.4699 36.4504 88.8059 36.2584C89.1499 36.0584 89.4219 35.7744 89.6219 35.4064C89.8219 35.0304 89.9219 34.5944 89.9219 34.0984ZM94.2033 31.7224V35.5984C94.2033 35.9184 94.2713 36.1464 94.4073 36.2824C94.5433 36.4104 94.7793 36.4744 95.1153 36.4744H95.9193V37.3984H94.9353C94.3273 37.3984 93.8713 37.2584 93.5673 36.9784C93.2633 36.6984 93.1113 36.2384 93.1113 35.5984V31.7224H92.2593V30.8224H93.1113V29.1664H94.2033V30.8224H95.9193V31.7224H94.2033ZM97.8064 29.7544C97.5984 29.7544 97.4224 29.6824 97.2784 29.5384C97.1344 29.3944 97.0624 29.2184 97.0624 29.0104C97.0624 28.8024 97.1344 28.6264 97.2784 28.4824C97.4224 28.3384 97.5984 28.2664 97.8064 28.2664C98.0064 28.2664 98.1744 28.3384 98.3104 28.4824C98.4544 28.6264 98.5264 28.8024 98.5264 29.0104C98.5264 29.2184 98.4544 29.3944 98.3104 29.5384C98.1744 29.6824 98.0064 29.7544 97.8064 29.7544ZM98.3344 30.8224V37.3984H97.2424V30.8224H98.3344ZM108.103 30.7024C108.615 30.7024 109.071 30.8104 109.471 31.0264C109.871 31.2344 110.187 31.5504 110.419 31.9744C110.651 32.3984 110.767 32.9144 110.767 33.5224V37.3984H109.687V33.6784C109.687 33.0224 109.523 32.5224 109.195 32.1784C108.875 31.8264 108.439 31.6504 107.887 31.6504C107.319 31.6504 106.867 31.8344 106.531 32.2024C106.195 32.5624 106.027 33.0864 106.027 33.7744V37.3984H104.947V33.6784C104.947 33.0224 104.783 32.5224 104.455 32.1784C104.135 31.8264 103.699 31.6504 103.147 31.6504C102.579 31.6504 102.127 31.8344 101.791 32.2024C101.455 32.5624 101.287 33.0864 101.287 33.7744V37.3984H100.195V30.8224H101.287V31.7704C101.503 31.4264 101.791 31.1624 102.151 30.9784C102.519 30.7944 102.923 30.7024 103.363 30.7024C103.915 30.7024 104.403 30.8264 104.827 31.0744C105.251 31.3224 105.567 31.6864 105.775 32.1664C105.959 31.7024 106.263 31.3424 106.687 31.0864C107.111 30.8304 107.583 30.7024 108.103 30.7024ZM112.151 34.0864C112.151 33.4144 112.287 32.8264 112.559 32.3224C112.831 31.8104 113.203 31.4144 113.675 31.1344C114.155 30.8544 114.687 30.7144 115.271 30.7144C115.847 30.7144 116.347 30.8384 116.771 31.0864C117.195 31.3344 117.511 31.6464 117.719 32.0224V30.8224H118.823V37.3984H117.719V36.1744C117.503 36.5584 117.179 36.8784 116.747 37.1344C116.323 37.3824 115.827 37.5064 115.259 37.5064C114.675 37.5064 114.147 37.3624 113.675 37.0744C113.203 36.7864 112.831 36.3824 112.559 35.8624C112.287 35.3424 112.151 34.7504 112.151 34.0864ZM117.719 34.0984C117.719 33.6024 117.619 33.1704 117.419 32.8024C117.219 32.4344 116.947 32.1544 116.603 31.9624C116.267 31.7624 115.895 31.6624 115.487 31.6624C115.079 31.6624 114.707 31.7584 114.371 31.9504C114.035 32.1424 113.767 32.4224 113.567 32.7904C113.367 33.1584 113.267 33.5904 113.267 34.0864C113.267 34.5904 113.367 35.0304 113.567 35.4064C113.767 35.7744 114.035 36.0584 114.371 36.2584C114.707 36.4504 115.079 36.5464 115.487 36.5464C115.895 36.5464 116.267 36.4504 116.603 36.2584C116.947 36.0584 117.219 35.7744 117.419 35.4064C117.619 35.0304 117.719 34.5944 117.719 34.0984ZM130.311 29.0344V37.3984H129.219V33.6064H124.959V37.3984H123.867V29.0344H124.959V32.7064H129.219V29.0344H130.311ZM138.008 30.8224V37.3984H136.916V36.4264C136.708 36.7624 136.416 37.0264 136.04 37.2184C135.672 37.4024 135.264 37.4944 134.816 37.4944C134.304 37.4944 133.844 37.3904 133.436 37.1824C133.028 36.9664 132.704 36.6464 132.464 36.2224C132.232 35.7984 132.116 35.2824 132.116 34.6744V30.8224H133.196V34.5304C133.196 35.1784 133.36 35.6784 133.688 36.0304C134.016 36.3744 134.464 36.5464 135.032 36.5464C135.616 36.5464 136.076 36.3664 136.412 36.0064C136.748 35.6464 136.916 35.1224 136.916 34.4344V30.8224H138.008ZM142.18 37.5064C141.676 37.5064 141.224 37.4224 140.824 37.2544C140.424 37.0784 140.108 36.8384 139.876 36.5344C139.644 36.2224 139.516 35.8664 139.492 35.4664H140.62C140.652 35.7944 140.804 36.0624 141.076 36.2704C141.356 36.4784 141.72 36.5824 142.168 36.5824C142.584 36.5824 142.912 36.4904 143.152 36.3064C143.392 36.1224 143.512 35.8904 143.512 35.6104C143.512 35.3224 143.384 35.1104 143.128 34.9744C142.872 34.8304 142.476 34.6904 141.94 34.5544C141.452 34.4264 141.052 34.2984 140.74 34.1704C140.436 34.0344 140.172 33.8384 139.948 33.5824C139.732 33.3184 139.624 32.9744 139.624 32.5504C139.624 32.2144 139.724 31.9064 139.924 31.6264C140.124 31.3464 140.408 31.1264 140.776 30.9664C141.144 30.7984 141.564 30.7144 142.036 30.7144C142.764 30.7144 143.352 30.8984 143.8 31.2664C144.248 31.6344 144.488 32.1384 144.52 32.7784H143.428C143.404 32.4344 143.264 32.1584 143.008 31.9504C142.76 31.7424 142.424 31.6384 142 31.6384C141.608 31.6384 141.296 31.7224 141.064 31.8904C140.832 32.0584 140.716 32.2784 140.716 32.5504C140.716 32.7664 140.784 32.9464 140.92 33.0904C141.064 33.2264 141.24 33.3384 141.448 33.4264C141.664 33.5064 141.96 33.5984 142.336 33.7024C142.808 33.8304 143.192 33.9584 143.488 34.0864C143.784 34.2064 144.036 34.3904 144.244 34.6384C144.46 34.8864 144.572 35.2104 144.58 35.6104C144.58 35.9704 144.48 36.2944 144.28 36.5824C144.08 36.8704 143.796 37.0984 143.428 37.2664C143.068 37.4264 142.652 37.5064 142.18 37.5064ZM152.121 33.8584C152.121 34.0664 152.109 34.2864 152.085 34.5184H146.829C146.869 35.1664 147.089 35.6744 147.489 36.0424C147.897 36.4024 148.389 36.5824 148.965 36.5824C149.437 36.5824 149.829 36.4744 150.141 36.2584C150.461 36.0344 150.685 35.7384 150.813 35.3704H151.989C151.813 36.0024 151.461 36.5184 150.933 36.9184C150.405 37.3104 149.749 37.5064 148.965 37.5064C148.341 37.5064 147.781 37.3664 147.285 37.0864C146.797 36.8064 146.413 36.4104 146.133 35.8984C145.853 35.3784 145.713 34.7784 145.713 34.0984C145.713 33.4184 145.849 32.8224 146.121 32.3104C146.393 31.7984 146.773 31.4064 147.261 31.1344C147.757 30.8544 148.325 30.7144 148.965 30.7144C149.589 30.7144 150.141 30.8504 150.621 31.1224C151.101 31.3944 151.469 31.7704 151.725 32.2504C151.989 32.7224 152.121 33.2584 152.121 33.8584ZM150.993 33.6304C150.993 33.2144 150.901 32.8584 150.717 32.5624C150.533 32.2584 150.281 32.0304 149.961 31.8784C149.649 31.7184 149.301 31.6384 148.917 31.6384C148.365 31.6384 147.893 31.8144 147.501 32.1664C147.117 32.5184 146.897 33.0064 146.841 33.6304H150.993ZM159.227 30.8224L155.267 40.4944H154.139L155.435 37.3264L152.783 30.8224H153.995L156.059 36.1504L158.099 30.8224H159.227ZM163.528 30.7024C164.328 30.7024 164.976 30.9464 165.472 31.4344C165.968 31.9144 166.216 32.6104 166.216 33.5224V37.3984H165.136V33.6784C165.136 33.0224 164.972 32.5224 164.644 32.1784C164.316 31.8264 163.868 31.6504 163.3 31.6504C162.724 31.6504 162.264 31.8304 161.92 32.1904C161.584 32.5504 161.416 33.0744 161.416 33.7624V37.3984H160.324V30.8224H161.416V31.7584C161.632 31.4224 161.924 31.1624 162.292 30.9784C162.668 30.7944 163.08 30.7024 163.528 30.7024ZM170.868 37.5064C170.252 37.5064 169.692 37.3664 169.188 37.0864C168.692 36.8064 168.3 36.4104 168.012 35.8984C167.732 35.3784 167.592 34.7784 167.592 34.0984C167.592 33.4264 167.736 32.8344 168.024 32.3224C168.32 31.8024 168.72 31.4064 169.224 31.1344C169.728 30.8544 170.292 30.7144 170.916 30.7144C171.54 30.7144 172.104 30.8544 172.608 31.1344C173.112 31.4064 173.508 31.7984 173.796 32.3104C174.092 32.8224 174.24 33.4184 174.24 34.0984C174.24 34.7784 174.088 35.3784 173.784 35.8984C173.488 36.4104 173.084 36.8064 172.572 37.0864C172.06 37.3664 171.492 37.5064 170.868 37.5064ZM170.868 36.5464C171.26 36.5464 171.628 36.4544 171.972 36.2704C172.316 36.0864 172.592 35.8104 172.8 35.4424C173.016 35.0744 173.124 34.6264 173.124 34.0984C173.124 33.5704 173.02 33.1224 172.812 32.7544C172.604 32.3864 172.332 32.1144 171.996 31.9384C171.66 31.7544 171.296 31.6624 170.904 31.6624C170.504 31.6624 170.136 31.7544 169.8 31.9384C169.472 32.1144 169.208 32.3864 169.008 32.7544C168.808 33.1224 168.708 33.5704 168.708 34.0984C168.708 34.6344 168.804 35.0864 168.996 35.4544C169.196 35.8224 169.46 36.0984 169.788 36.2824C170.116 36.4584 170.476 36.5464 170.868 36.5464ZM178.124 36.3904L180.164 30.8224H181.328L178.748 37.3984H177.476L174.896 30.8224H176.072L178.124 36.3904ZM181.995 34.0864C181.995 33.4144 182.131 32.8264 182.403 32.3224C182.675 31.8104 183.047 31.4144 183.519 31.1344C183.999 30.8544 184.531 30.7144 185.115 30.7144C185.691 30.7144 186.191 30.8384 186.615 31.0864C187.039 31.3344 187.355 31.6464 187.563 32.0224V30.8224H188.667V37.3984H187.563V36.1744C187.347 36.5584 187.023 36.8784 186.591 37.1344C186.167 37.3824 185.671 37.5064 185.103 37.5064C184.519 37.5064 183.991 37.3624 183.519 37.0744C183.047 36.7864 182.675 36.3824 182.403 35.8624C182.131 35.3424 181.995 34.7504 181.995 34.0864ZM187.563 34.0984C187.563 33.6024 187.463 33.1704 187.263 32.8024C187.063 32.4344 186.791 32.1544 186.447 31.9624C186.111 31.7624 185.739 31.6624 185.331 31.6624C184.923 31.6624 184.551 31.7584 184.215 31.9504C183.879 32.1424 183.611 32.4224 183.411 32.7904C183.211 33.1584 183.111 33.5904 183.111 34.0864C183.111 34.5904 183.211 35.0304 183.411 35.4064C183.611 35.7744 183.879 36.0584 184.215 36.2584C184.551 36.4504 184.923 36.5464 185.331 36.5464C185.739 36.5464 186.111 36.4504 186.447 36.2584C186.791 36.0584 187.063 35.7744 187.263 35.4064C187.463 35.0304 187.563 34.5944 187.563 34.0984Z" fill="white"/>
</svg>
