<svg width="101" height="101" viewBox="0 0 101 101" fill="none" xmlns="http://www.w3.org/2000/svg">
<g style="mix-blend-mode:hard-light" filter="url(#filter0_f_1571_1307)">
<circle cx="50.4" cy="50.4" r="38.4" fill="#FF3780" fill-opacity="0.292"/>
</g>
<g style="mix-blend-mode:hard-light" filter="url(#filter1_f_1571_1307)">
<path fill-rule="evenodd" clip-rule="evenodd" d="M82.4004 50.3984C82.4004 32.7253 68.0735 18.3984 50.4004 18.3984C32.7273 18.3984 18.4004 32.7253 18.4004 50.3984C18.4004 68.0715 32.7273 82.3984 50.4004 82.3984C68.0735 82.3984 82.4004 68.0715 82.4004 50.3984ZM46.4004 50.3984C46.4004 64.4417 47.5312 76.3722 49.104 80.6805C48.807 80.3725 48.486 79.948 48.1473 79.3749C47.2604 77.8743 46.4269 75.6364 45.7137 72.7833C44.291 67.0926 43.4004 59.1779 43.4004 50.3984C43.4004 41.619 44.291 33.7043 45.7137 28.0136C46.4269 25.1605 47.2604 22.9226 48.1473 21.422C48.486 20.8489 48.807 20.4244 49.104 20.1164C47.5312 24.4247 46.4004 36.3551 46.4004 50.3984ZM52.6535 79.3749C52.3147 79.948 51.9937 80.3725 51.6967 80.6805C53.2696 76.3722 54.4004 64.4417 54.4004 50.3984C54.4004 36.3552 53.2696 24.4247 51.6967 20.1164C51.9937 20.4244 52.3147 20.8489 52.6535 21.422C53.5404 22.9226 54.3738 25.1605 55.0871 28.0136C56.5098 33.7043 57.4004 41.619 57.4004 50.3984C57.4004 59.1779 56.5098 67.0926 55.0871 72.7833C54.3738 75.6364 53.5404 77.8743 52.6535 79.3749ZM47.479 80.1978C47.1458 79.9222 46.8117 79.5971 46.4777 79.2203C45.1521 77.7251 43.9126 75.5046 42.8514 72.6747C40.7318 67.0225 39.4004 59.1468 39.4004 50.3984C39.4004 41.65 40.7318 33.7744 42.8514 28.1221C43.9126 25.2923 45.1521 23.0717 46.4777 21.5766C46.8117 21.1998 47.1458 20.8747 47.479 20.5991C44.5056 25.2667 42.4004 36.8492 42.4004 50.3984C42.4004 63.9477 44.5056 75.5302 47.479 80.1978ZM53.3217 80.1978C53.6549 79.9222 53.9891 79.5971 54.3231 79.2203C55.6487 77.7251 56.8882 75.5046 57.9493 72.6747C60.0689 67.0225 61.4004 59.1468 61.4004 50.3984C61.4004 41.65 60.0689 33.7744 57.9493 28.1221C56.8882 25.2923 55.6487 23.0717 54.3231 21.5766C53.9891 21.1998 53.6549 20.8747 53.3217 20.5991C56.2952 25.2667 58.4004 36.8492 58.4004 50.3984C58.4004 63.9477 56.2952 75.5302 53.3217 80.1978ZM39.9811 72.5786C41.6053 75.8271 43.5232 78.243 45.5844 79.7171C41.3548 74.7694 38.4004 63.504 38.4004 50.3984C38.4004 37.2929 41.3548 26.0274 45.5844 21.0798C43.5232 22.5539 41.6053 24.9698 39.9811 28.2182C37.1687 33.843 35.4004 41.6835 35.4004 50.3984C35.4004 59.1134 37.1687 66.9539 39.9811 72.5786ZM60.8197 72.5786C59.1955 75.8271 57.2776 78.243 55.2164 79.7171C59.446 74.7694 62.4004 63.504 62.4004 50.3984C62.4004 37.2929 59.446 26.0274 55.2164 21.0798C57.2776 22.5539 59.1955 24.9698 60.8197 28.2182C63.632 33.843 65.4004 41.6835 65.4004 50.3984C65.4004 59.1134 63.632 66.9539 60.8197 72.5786ZM43.4722 79.2511C41.1039 77.726 38.94 75.4298 37.1063 72.4959C33.6011 66.8876 31.4004 59.0776 31.4004 50.3984C31.4004 41.7193 33.6011 33.9093 37.1063 28.301C38.94 25.367 41.1039 23.0709 43.4722 21.5458C38.1049 26.7105 34.4004 37.6892 34.4004 50.3984C34.4004 63.1077 38.1049 74.0864 43.4722 79.2511ZM57.3286 79.2511C59.6969 77.726 61.8608 75.4298 63.6945 72.4959C67.1997 66.8876 69.4004 59.0776 69.4004 50.3984C69.4004 41.7193 67.1997 33.9093 63.6945 28.301C61.8608 25.367 59.6969 23.0709 57.3286 21.5458C62.6958 26.7105 66.4004 37.6892 66.4004 50.3984C66.4004 63.1077 62.6958 74.0864 57.3286 79.2511ZM34.2298 72.4259C36.2319 75.0953 38.5806 77.2582 41.1665 78.7911C34.7685 73.4535 30.4004 62.7421 30.4004 50.3984C30.4004 38.0547 34.7685 27.3434 41.1665 22.0058C38.5806 23.5387 36.2319 25.7016 34.2298 28.371C30.0285 33.9728 27.4004 41.7573 27.4004 50.3984C27.4004 59.0395 30.0285 66.8241 34.2298 72.4259ZM66.571 72.4259C64.5689 75.0953 62.2201 77.2582 59.6343 78.7911C66.0322 73.4535 70.4004 62.7421 70.4004 50.3984C70.4004 38.0547 66.0322 27.3434 59.6343 22.0058C62.2201 23.5387 64.5689 25.7016 66.571 28.371C70.7723 33.9728 73.4004 41.7573 73.4004 50.3984C73.4004 59.0395 70.7723 66.8241 66.571 72.4259ZM38.6619 78.3162C29.668 73.3204 23.4004 62.758 23.4004 50.3984C23.4004 38.0389 29.668 27.4765 38.6619 22.4807C31.3443 27.9623 26.4004 38.4105 26.4004 50.3984C26.4004 62.3863 31.3443 72.8346 38.6619 78.3162ZM62.1388 78.3162C71.1327 73.3204 77.4004 62.758 77.4004 50.3984C77.4004 38.0389 71.1327 27.4765 62.1388 22.4806C69.4564 27.9623 74.4004 38.4105 74.4004 50.3984C74.4004 62.3863 69.4564 72.8346 62.1388 78.3162ZM19.4004 50.3984C19.4004 62.3467 26.16 72.7162 36.0637 77.8912C27.8805 72.3056 22.4004 62.0834 22.4004 50.3984C22.4004 38.7134 27.8805 28.4913 36.0637 22.9056C26.16 28.0807 19.4004 38.4502 19.4004 50.3984ZM81.4004 50.3984C81.4004 62.3467 74.6407 72.7162 64.7371 77.8912C72.9203 72.3056 78.4004 62.0834 78.4004 50.3984C78.4004 38.7135 72.9203 28.4913 64.7371 22.9056C74.6407 28.0807 81.4004 38.4502 81.4004 50.3984ZM52.2365 72.9018C52.9538 67.1636 53.4004 59.207 53.4004 50.3984C53.4004 41.5899 52.9538 33.6333 52.2365 27.8951C51.877 25.0189 51.4541 22.7385 50.9984 21.1966C50.9655 21.0854 50.9328 20.9793 50.9004 20.8781V79.9188C50.9328 79.8176 50.9655 79.7115 50.9984 79.6003C51.4541 78.0584 51.877 75.778 52.2365 72.9018ZM49.9004 20.8781V79.9188C49.8679 79.8176 49.8353 79.7115 49.8024 79.6003C49.3467 78.0584 48.9238 75.778 48.5642 72.9018C47.847 67.1636 47.4004 59.207 47.4004 50.3984C47.4004 41.5899 47.847 33.6333 48.5642 27.8951C48.9238 25.0189 49.3467 22.7385 49.8024 21.1966C49.8353 21.0854 49.8679 20.9793 49.9004 20.8781Z" stroke="#FF006E" stroke-width="1.73333"/>
<path fill-rule="evenodd" clip-rule="evenodd" d="M50.4004 18.3984C32.7273 18.3984 18.4004 32.7253 18.4004 50.3984C18.4004 68.0715 32.7273 82.3984 50.4004 82.3984C68.0735 82.3984 82.4004 68.0715 82.4004 50.3984C82.4004 32.7253 68.0735 18.3984 50.4004 18.3984ZM50.4004 54.3984C64.4437 54.3984 76.3741 53.2677 80.6825 51.6948C80.3745 51.9918 79.9499 52.3128 79.3768 52.6515C77.8763 53.5385 75.6383 54.3719 72.7853 55.0852C67.0945 56.5078 59.1798 57.3984 50.4004 57.3984C41.621 57.3984 33.7063 56.5078 28.0155 55.0852C25.1624 54.3719 22.9245 53.5385 21.4239 52.6515C20.8508 52.3128 20.4263 51.9918 20.1183 51.6948C24.4266 53.2677 36.3571 54.3984 50.4004 54.3984ZM79.3768 48.1453C79.9499 48.4841 80.3745 48.8051 80.6825 49.1021C76.3741 47.5292 64.4437 46.3984 50.4004 46.3984C36.3571 46.3984 24.4266 47.5292 20.1183 49.1021C20.4263 48.8051 20.8508 48.4841 21.4239 48.1453C22.9245 47.2584 25.1624 46.425 28.0155 45.7117C33.7063 44.289 41.621 43.3984 50.4004 43.3984C59.1798 43.3984 67.0945 44.289 72.7853 45.7117C75.6383 46.425 77.8763 47.2584 79.3768 48.1453ZM80.1997 53.3198C79.9241 53.653 79.599 53.9871 79.2223 54.3211C77.7271 55.6467 75.5065 56.8862 72.6767 57.9474C67.0244 60.067 59.1488 61.3984 50.4004 61.3984C41.652 61.3984 33.7764 60.067 28.1241 57.9474C25.2943 56.8862 23.0737 55.6467 21.5785 54.3211C21.2018 53.9871 20.8767 53.653 20.6011 53.3198C25.2686 56.2932 36.8511 58.3984 50.4004 58.3984C63.9497 58.3984 75.5321 56.2932 80.1997 53.3198ZM80.1997 47.4771C79.9241 47.1439 79.599 46.8098 79.2223 46.4758C77.7271 45.1501 75.5065 43.9107 72.6767 42.8495C67.0244 40.7299 59.1488 39.3984 50.4004 39.3984C41.652 39.3984 33.7764 40.7299 28.1241 42.8495C25.2943 43.9107 23.0737 45.1501 21.5785 46.4758C21.2018 46.8098 20.8767 47.1439 20.6011 47.4771C25.2686 44.5037 36.8511 42.3984 50.4004 42.3984C63.9497 42.3984 75.5321 44.5037 80.1997 47.4771ZM72.5806 60.8177C75.829 59.1935 78.2449 57.2756 79.7191 55.2144C74.7714 59.444 63.5059 62.3984 50.4004 62.3984C37.2948 62.3984 26.0294 59.444 21.0817 55.2144C22.5558 57.2756 24.9718 59.1935 28.2202 60.8177C33.8449 63.6301 41.6854 65.3984 50.4004 65.3984C59.1154 65.3984 66.9559 63.6301 72.5806 60.8177ZM72.5806 39.9792C75.829 41.6034 78.2449 43.5212 79.7191 45.5825C74.7714 41.3528 63.5059 38.3984 50.4004 38.3984C37.2948 38.3984 26.0294 41.3528 21.0817 45.5825C22.5558 43.5212 24.9718 41.6034 28.2202 39.9792C33.8449 37.1668 41.6854 35.3984 50.4004 35.3984C59.1154 35.3984 66.9559 37.1668 72.5806 39.9792ZM79.253 57.3266C77.728 59.6949 75.4318 61.8588 72.4978 63.6926C66.8895 67.1978 59.0795 69.3984 50.4004 69.3984C41.7213 69.3984 33.9113 67.1978 28.303 63.6926C25.369 61.8588 23.0728 59.6949 21.5478 57.3266C26.7124 62.6939 37.6912 66.3984 50.4004 66.3984C63.1096 66.3984 74.0884 62.6939 79.253 57.3266ZM79.253 43.4703C77.728 41.102 75.4318 38.938 72.4978 37.1043C66.8895 33.5991 59.0795 31.3984 50.4004 31.3984C41.7213 31.3984 33.9113 33.5991 28.303 37.1043C25.369 38.938 23.0728 41.102 21.5478 43.4703C26.7124 38.103 37.6912 34.3984 50.4004 34.3984C63.1096 34.3984 74.0884 38.103 79.253 43.4703ZM72.4278 66.569C75.0972 64.5669 77.2602 62.2182 78.7931 59.6323C73.4554 66.0303 62.7441 70.3984 50.4004 70.3984C38.0567 70.3984 27.3453 66.0303 22.0077 59.6323C23.5406 62.2182 25.7035 64.5669 28.373 66.569C33.9747 70.7703 41.7593 73.3984 50.4004 73.3984C59.0415 73.3984 66.8261 70.7703 72.4278 66.569ZM72.4278 34.2279C75.0972 36.23 77.2602 38.5787 78.7931 41.1646C73.4554 34.7666 62.7441 30.3984 50.4004 30.3984C38.0567 30.3984 27.3453 34.7666 22.0077 41.1646C23.5406 38.5787 25.7035 36.23 28.373 34.2279C33.9747 30.0266 41.7593 27.3984 50.4004 27.3984C59.0415 27.3984 66.8261 30.0266 72.4278 34.2279ZM78.3182 62.1369C73.3223 71.1308 62.7599 77.3984 50.4004 77.3984C38.0409 77.3984 27.4785 71.1308 22.4826 62.1369C27.9642 69.4545 38.4125 74.3984 50.4004 74.3984C62.3883 74.3984 72.8366 69.4545 78.3182 62.1369ZM78.3182 38.66C73.3223 29.6661 62.7599 23.3984 50.4004 23.3984C38.0409 23.3984 27.4784 29.6661 22.4826 38.66C27.9642 31.3424 38.4125 26.3984 50.4004 26.3984C62.3883 26.3984 72.8366 31.3424 78.3182 38.66ZM50.4004 81.3984C62.3487 81.3984 72.7181 74.6388 77.8932 64.7351C72.3076 72.9183 62.0854 78.3984 50.4004 78.3984C38.7154 78.3984 28.4932 72.9183 22.9076 64.7351C28.0827 74.6388 38.4521 81.3984 50.4004 81.3984ZM50.4004 19.3984C62.3487 19.3984 72.7181 26.1581 77.8932 36.0618C72.3076 27.8786 62.0854 22.3984 50.4004 22.3984C38.7154 22.3984 28.4932 27.8786 22.9076 36.0618C28.0827 26.1581 38.4521 19.3984 50.4004 19.3984ZM72.9038 48.5623C67.1655 47.845 59.2089 47.3984 50.4004 47.3984C41.5919 47.3984 33.6353 47.845 27.897 48.5623C25.0209 48.9218 22.7404 49.3448 21.1985 49.8005C21.0874 49.8333 20.9813 49.866 20.8801 49.8984H79.9207C79.8195 49.866 79.7134 49.8333 79.6023 49.8005C78.0604 49.3448 75.7799 48.9218 72.9038 48.5623ZM20.8801 50.8984H79.9207C79.8195 50.9309 79.7134 50.9636 79.6023 50.9964C78.0604 51.4521 75.7799 51.8751 72.9038 52.2346C67.1655 52.9519 59.2089 53.3984 50.4004 53.3984C41.5919 53.3984 33.6353 52.9519 27.897 52.2346C25.0209 51.8751 22.7404 51.4521 21.1985 50.9964C21.0874 50.9636 20.9813 50.9309 20.8801 50.8984Z" stroke="#FF006E" stroke-width="1.73333"/>
</g>
<g style="mix-blend-mode:hard-light" filter="url(#filter2_f_1571_1307)">
<path fill-rule="evenodd" clip-rule="evenodd" d="M82.4004 50.3984C82.4004 32.7253 68.0735 18.3984 50.4004 18.3984C32.7273 18.3984 18.4004 32.7253 18.4004 50.3984C18.4004 68.0715 32.7273 82.3984 50.4004 82.3984C68.0735 82.3984 82.4004 68.0715 82.4004 50.3984ZM46.4004 50.3984C46.4004 64.4417 47.5312 76.3722 49.104 80.6805C48.807 80.3725 48.486 79.948 48.1473 79.3749C47.2604 77.8743 46.4269 75.6364 45.7137 72.7833C44.291 67.0926 43.4004 59.1779 43.4004 50.3984C43.4004 41.619 44.291 33.7043 45.7137 28.0136C46.4269 25.1605 47.2604 22.9226 48.1473 21.422C48.486 20.8489 48.807 20.4244 49.104 20.1164C47.5312 24.4247 46.4004 36.3551 46.4004 50.3984ZM52.6535 79.3749C52.3147 79.948 51.9937 80.3725 51.6967 80.6805C53.2696 76.3722 54.4004 64.4417 54.4004 50.3984C54.4004 36.3552 53.2696 24.4247 51.6967 20.1164C51.9937 20.4244 52.3147 20.8489 52.6535 21.422C53.5404 22.9226 54.3738 25.1605 55.0871 28.0136C56.5098 33.7043 57.4004 41.619 57.4004 50.3984C57.4004 59.1779 56.5098 67.0926 55.0871 72.7833C54.3738 75.6364 53.5404 77.8743 52.6535 79.3749ZM47.479 80.1978C47.1458 79.9222 46.8117 79.5971 46.4777 79.2203C45.1521 77.7251 43.9126 75.5046 42.8514 72.6747C40.7318 67.0225 39.4004 59.1468 39.4004 50.3984C39.4004 41.65 40.7318 33.7744 42.8514 28.1221C43.9126 25.2923 45.1521 23.0717 46.4777 21.5766C46.8117 21.1998 47.1458 20.8747 47.479 20.5991C44.5056 25.2667 42.4004 36.8492 42.4004 50.3984C42.4004 63.9477 44.5056 75.5302 47.479 80.1978ZM53.3217 80.1978C53.6549 79.9222 53.9891 79.5971 54.3231 79.2203C55.6487 77.7251 56.8882 75.5046 57.9493 72.6747C60.0689 67.0225 61.4004 59.1468 61.4004 50.3984C61.4004 41.65 60.0689 33.7744 57.9493 28.1221C56.8882 25.2923 55.6487 23.0717 54.3231 21.5766C53.9891 21.1998 53.6549 20.8747 53.3217 20.5991C56.2952 25.2667 58.4004 36.8492 58.4004 50.3984C58.4004 63.9477 56.2952 75.5302 53.3217 80.1978ZM39.9811 72.5786C41.6053 75.8271 43.5232 78.243 45.5844 79.7171C41.3548 74.7694 38.4004 63.504 38.4004 50.3984C38.4004 37.2929 41.3548 26.0274 45.5844 21.0798C43.5232 22.5539 41.6053 24.9698 39.9811 28.2182C37.1687 33.843 35.4004 41.6835 35.4004 50.3984C35.4004 59.1134 37.1687 66.9539 39.9811 72.5786ZM60.8197 72.5786C59.1955 75.8271 57.2776 78.243 55.2164 79.7171C59.446 74.7694 62.4004 63.504 62.4004 50.3984C62.4004 37.2929 59.446 26.0274 55.2164 21.0798C57.2776 22.5539 59.1955 24.9698 60.8197 28.2182C63.632 33.843 65.4004 41.6835 65.4004 50.3984C65.4004 59.1134 63.632 66.9539 60.8197 72.5786ZM43.4722 79.2511C41.1039 77.726 38.94 75.4298 37.1063 72.4959C33.6011 66.8876 31.4004 59.0776 31.4004 50.3984C31.4004 41.7193 33.6011 33.9093 37.1063 28.301C38.94 25.367 41.1039 23.0709 43.4722 21.5458C38.1049 26.7105 34.4004 37.6892 34.4004 50.3984C34.4004 63.1077 38.1049 74.0864 43.4722 79.2511ZM57.3286 79.2511C59.6969 77.726 61.8608 75.4298 63.6945 72.4959C67.1997 66.8876 69.4004 59.0776 69.4004 50.3984C69.4004 41.7193 67.1997 33.9093 63.6945 28.301C61.8608 25.367 59.6969 23.0709 57.3286 21.5458C62.6958 26.7105 66.4004 37.6892 66.4004 50.3984C66.4004 63.1077 62.6958 74.0864 57.3286 79.2511ZM34.2298 72.4259C36.2319 75.0953 38.5806 77.2582 41.1665 78.7911C34.7685 73.4535 30.4004 62.7421 30.4004 50.3984C30.4004 38.0547 34.7685 27.3434 41.1665 22.0058C38.5806 23.5387 36.2319 25.7016 34.2298 28.371C30.0285 33.9728 27.4004 41.7573 27.4004 50.3984C27.4004 59.0395 30.0285 66.8241 34.2298 72.4259ZM66.571 72.4259C64.5689 75.0953 62.2201 77.2582 59.6343 78.7911C66.0322 73.4535 70.4004 62.7421 70.4004 50.3984C70.4004 38.0547 66.0322 27.3434 59.6343 22.0058C62.2201 23.5387 64.5689 25.7016 66.571 28.371C70.7723 33.9728 73.4004 41.7573 73.4004 50.3984C73.4004 59.0395 70.7723 66.8241 66.571 72.4259ZM38.6619 78.3162C29.668 73.3204 23.4004 62.758 23.4004 50.3984C23.4004 38.0389 29.668 27.4765 38.6619 22.4807C31.3443 27.9623 26.4004 38.4105 26.4004 50.3984C26.4004 62.3863 31.3443 72.8346 38.6619 78.3162ZM62.1388 78.3162C71.1327 73.3204 77.4004 62.758 77.4004 50.3984C77.4004 38.0389 71.1327 27.4765 62.1388 22.4806C69.4564 27.9623 74.4004 38.4105 74.4004 50.3984C74.4004 62.3863 69.4564 72.8346 62.1388 78.3162ZM19.4004 50.3984C19.4004 62.3467 26.16 72.7162 36.0637 77.8912C27.8805 72.3056 22.4004 62.0834 22.4004 50.3984C22.4004 38.7134 27.8805 28.4913 36.0637 22.9056C26.16 28.0807 19.4004 38.4502 19.4004 50.3984ZM81.4004 50.3984C81.4004 62.3467 74.6407 72.7162 64.7371 77.8912C72.9203 72.3056 78.4004 62.0834 78.4004 50.3984C78.4004 38.7135 72.9203 28.4913 64.7371 22.9056C74.6407 28.0807 81.4004 38.4502 81.4004 50.3984ZM52.2365 72.9018C52.9538 67.1636 53.4004 59.207 53.4004 50.3984C53.4004 41.5899 52.9538 33.6333 52.2365 27.8951C51.877 25.0189 51.4541 22.7385 50.9984 21.1966C50.9655 21.0854 50.9328 20.9793 50.9004 20.8781V79.9188C50.9328 79.8176 50.9655 79.7115 50.9984 79.6003C51.4541 78.0584 51.877 75.778 52.2365 72.9018ZM49.9004 20.8781V79.9188C49.8679 79.8176 49.8353 79.7115 49.8024 79.6003C49.3467 78.0584 48.9238 75.778 48.5642 72.9018C47.847 67.1636 47.4004 59.207 47.4004 50.3984C47.4004 41.5899 47.847 33.6333 48.5642 27.8951C48.9238 25.0189 49.3467 22.7385 49.8024 21.1966C49.8353 21.0854 49.8679 20.9793 49.9004 20.8781Z" stroke="#FF26C2" stroke-width="2.26667"/>
<path fill-rule="evenodd" clip-rule="evenodd" d="M50.4004 18.3984C32.7273 18.3984 18.4004 32.7253 18.4004 50.3984C18.4004 68.0715 32.7273 82.3984 50.4004 82.3984C68.0735 82.3984 82.4004 68.0715 82.4004 50.3984C82.4004 32.7253 68.0735 18.3984 50.4004 18.3984ZM50.4004 54.3984C64.4437 54.3984 76.3741 53.2677 80.6825 51.6948C80.3745 51.9918 79.9499 52.3128 79.3768 52.6515C77.8763 53.5385 75.6383 54.3719 72.7853 55.0852C67.0945 56.5078 59.1798 57.3984 50.4004 57.3984C41.621 57.3984 33.7063 56.5078 28.0155 55.0852C25.1624 54.3719 22.9245 53.5385 21.4239 52.6515C20.8508 52.3128 20.4263 51.9918 20.1183 51.6948C24.4266 53.2677 36.3571 54.3984 50.4004 54.3984ZM79.3768 48.1453C79.9499 48.4841 80.3745 48.8051 80.6825 49.1021C76.3741 47.5292 64.4437 46.3984 50.4004 46.3984C36.3571 46.3984 24.4266 47.5292 20.1183 49.1021C20.4263 48.8051 20.8508 48.4841 21.4239 48.1453C22.9245 47.2584 25.1624 46.425 28.0155 45.7117C33.7063 44.289 41.621 43.3984 50.4004 43.3984C59.1798 43.3984 67.0945 44.289 72.7853 45.7117C75.6383 46.425 77.8763 47.2584 79.3768 48.1453ZM80.1997 53.3198C79.9241 53.653 79.599 53.9871 79.2223 54.3211C77.7271 55.6467 75.5065 56.8862 72.6767 57.9474C67.0244 60.067 59.1488 61.3984 50.4004 61.3984C41.652 61.3984 33.7764 60.067 28.1241 57.9474C25.2943 56.8862 23.0737 55.6467 21.5785 54.3211C21.2018 53.9871 20.8767 53.653 20.6011 53.3198C25.2686 56.2932 36.8511 58.3984 50.4004 58.3984C63.9497 58.3984 75.5321 56.2932 80.1997 53.3198ZM80.1997 47.4771C79.9241 47.1439 79.599 46.8098 79.2223 46.4758C77.7271 45.1501 75.5065 43.9107 72.6767 42.8495C67.0244 40.7299 59.1488 39.3984 50.4004 39.3984C41.652 39.3984 33.7764 40.7299 28.1241 42.8495C25.2943 43.9107 23.0737 45.1501 21.5785 46.4758C21.2018 46.8098 20.8767 47.1439 20.6011 47.4771C25.2686 44.5037 36.8511 42.3984 50.4004 42.3984C63.9497 42.3984 75.5321 44.5037 80.1997 47.4771ZM72.5806 60.8177C75.829 59.1935 78.2449 57.2756 79.7191 55.2144C74.7714 59.444 63.5059 62.3984 50.4004 62.3984C37.2948 62.3984 26.0294 59.444 21.0817 55.2144C22.5558 57.2756 24.9718 59.1935 28.2202 60.8177C33.8449 63.6301 41.6854 65.3984 50.4004 65.3984C59.1154 65.3984 66.9559 63.6301 72.5806 60.8177ZM72.5806 39.9792C75.829 41.6034 78.2449 43.5212 79.7191 45.5825C74.7714 41.3528 63.5059 38.3984 50.4004 38.3984C37.2948 38.3984 26.0294 41.3528 21.0817 45.5825C22.5558 43.5212 24.9718 41.6034 28.2202 39.9792C33.8449 37.1668 41.6854 35.3984 50.4004 35.3984C59.1154 35.3984 66.9559 37.1668 72.5806 39.9792ZM79.253 57.3266C77.728 59.6949 75.4318 61.8588 72.4978 63.6926C66.8895 67.1978 59.0795 69.3984 50.4004 69.3984C41.7213 69.3984 33.9113 67.1978 28.303 63.6926C25.369 61.8588 23.0728 59.6949 21.5478 57.3266C26.7124 62.6939 37.6912 66.3984 50.4004 66.3984C63.1096 66.3984 74.0884 62.6939 79.253 57.3266ZM79.253 43.4703C77.728 41.102 75.4318 38.938 72.4978 37.1043C66.8895 33.5991 59.0795 31.3984 50.4004 31.3984C41.7213 31.3984 33.9113 33.5991 28.303 37.1043C25.369 38.938 23.0728 41.102 21.5478 43.4703C26.7124 38.103 37.6912 34.3984 50.4004 34.3984C63.1096 34.3984 74.0884 38.103 79.253 43.4703ZM72.4278 66.569C75.0972 64.5669 77.2602 62.2182 78.7931 59.6323C73.4554 66.0303 62.7441 70.3984 50.4004 70.3984C38.0567 70.3984 27.3453 66.0303 22.0077 59.6323C23.5406 62.2182 25.7035 64.5669 28.373 66.569C33.9747 70.7703 41.7593 73.3984 50.4004 73.3984C59.0415 73.3984 66.8261 70.7703 72.4278 66.569ZM72.4278 34.2279C75.0972 36.23 77.2602 38.5787 78.7931 41.1646C73.4554 34.7666 62.7441 30.3984 50.4004 30.3984C38.0567 30.3984 27.3453 34.7666 22.0077 41.1646C23.5406 38.5787 25.7035 36.23 28.373 34.2279C33.9747 30.0266 41.7593 27.3984 50.4004 27.3984C59.0415 27.3984 66.8261 30.0266 72.4278 34.2279ZM78.3182 62.1369C73.3223 71.1308 62.7599 77.3984 50.4004 77.3984C38.0409 77.3984 27.4785 71.1308 22.4826 62.1369C27.9642 69.4545 38.4125 74.3984 50.4004 74.3984C62.3883 74.3984 72.8366 69.4545 78.3182 62.1369ZM78.3182 38.66C73.3223 29.6661 62.7599 23.3984 50.4004 23.3984C38.0409 23.3984 27.4784 29.6661 22.4826 38.66C27.9642 31.3424 38.4125 26.3984 50.4004 26.3984C62.3883 26.3984 72.8366 31.3424 78.3182 38.66ZM50.4004 81.3984C62.3487 81.3984 72.7181 74.6388 77.8932 64.7351C72.3076 72.9183 62.0854 78.3984 50.4004 78.3984C38.7154 78.3984 28.4932 72.9183 22.9076 64.7351C28.0827 74.6388 38.4521 81.3984 50.4004 81.3984ZM50.4004 19.3984C62.3487 19.3984 72.7181 26.1581 77.8932 36.0618C72.3076 27.8786 62.0854 22.3984 50.4004 22.3984C38.7154 22.3984 28.4932 27.8786 22.9076 36.0618C28.0827 26.1581 38.4521 19.3984 50.4004 19.3984ZM72.9038 48.5623C67.1655 47.845 59.2089 47.3984 50.4004 47.3984C41.5919 47.3984 33.6353 47.845 27.897 48.5623C25.0209 48.9218 22.7404 49.3448 21.1985 49.8005C21.0874 49.8333 20.9813 49.866 20.8801 49.8984H79.9207C79.8195 49.866 79.7134 49.8333 79.6023 49.8005C78.0604 49.3448 75.7799 48.9218 72.9038 48.5623ZM20.8801 50.8984H79.9207C79.8195 50.9309 79.7134 50.9636 79.6023 50.9964C78.0604 51.4521 75.7799 51.8751 72.9038 52.2346C67.1655 52.9519 59.2089 53.3984 50.4004 53.3984C41.5919 53.3984 33.6353 52.9519 27.897 52.2346C25.0209 51.8751 22.7404 51.4521 21.1985 50.9964C21.0874 50.9636 20.9813 50.9309 20.8801 50.8984Z" stroke="#FF26C2" stroke-width="2.26667"/>
</g>
<g style="mix-blend-mode:hard-light" filter="url(#filter3_ddi_1571_1307)">
<path fill-rule="evenodd" clip-rule="evenodd" d="M82.4004 50.3984C82.4004 32.7253 68.0735 18.3984 50.4004 18.3984C32.7273 18.3984 18.4004 32.7253 18.4004 50.3984C18.4004 68.0715 32.7273 82.3984 50.4004 82.3984C68.0735 82.3984 82.4004 68.0715 82.4004 50.3984ZM46.4004 50.3984C46.4004 64.4417 47.5312 76.3722 49.104 80.6805C48.807 80.3725 48.486 79.948 48.1473 79.3749C47.2604 77.8743 46.4269 75.6364 45.7137 72.7833C44.291 67.0926 43.4004 59.1779 43.4004 50.3984C43.4004 41.619 44.291 33.7043 45.7137 28.0136C46.4269 25.1605 47.2604 22.9226 48.1473 21.422C48.486 20.8489 48.807 20.4244 49.104 20.1164C47.5312 24.4247 46.4004 36.3551 46.4004 50.3984ZM52.6535 79.3749C52.3147 79.948 51.9937 80.3725 51.6967 80.6805C53.2696 76.3722 54.4004 64.4417 54.4004 50.3984C54.4004 36.3552 53.2696 24.4247 51.6967 20.1164C51.9937 20.4244 52.3147 20.8489 52.6535 21.422C53.5404 22.9226 54.3738 25.1605 55.0871 28.0136C56.5098 33.7043 57.4004 41.619 57.4004 50.3984C57.4004 59.1779 56.5098 67.0926 55.0871 72.7833C54.3738 75.6364 53.5404 77.8743 52.6535 79.3749ZM47.479 80.1978C47.1458 79.9222 46.8117 79.5971 46.4777 79.2203C45.1521 77.7251 43.9126 75.5046 42.8514 72.6747C40.7318 67.0225 39.4004 59.1468 39.4004 50.3984C39.4004 41.65 40.7318 33.7744 42.8514 28.1221C43.9126 25.2923 45.1521 23.0717 46.4777 21.5766C46.8117 21.1998 47.1458 20.8747 47.479 20.5991C44.5056 25.2667 42.4004 36.8492 42.4004 50.3984C42.4004 63.9477 44.5056 75.5302 47.479 80.1978ZM53.3217 80.1978C53.6549 79.9222 53.9891 79.5971 54.3231 79.2203C55.6487 77.7251 56.8882 75.5046 57.9493 72.6747C60.0689 67.0225 61.4004 59.1468 61.4004 50.3984C61.4004 41.65 60.0689 33.7744 57.9493 28.1221C56.8882 25.2923 55.6487 23.0717 54.3231 21.5766C53.9891 21.1998 53.6549 20.8747 53.3217 20.5991C56.2952 25.2667 58.4004 36.8492 58.4004 50.3984C58.4004 63.9477 56.2952 75.5302 53.3217 80.1978ZM39.9811 72.5786C41.6053 75.8271 43.5232 78.243 45.5844 79.7171C41.3548 74.7694 38.4004 63.504 38.4004 50.3984C38.4004 37.2929 41.3548 26.0274 45.5844 21.0798C43.5232 22.5539 41.6053 24.9698 39.9811 28.2182C37.1687 33.843 35.4004 41.6835 35.4004 50.3984C35.4004 59.1134 37.1687 66.9539 39.9811 72.5786ZM60.8197 72.5786C59.1955 75.8271 57.2776 78.243 55.2164 79.7171C59.446 74.7694 62.4004 63.504 62.4004 50.3984C62.4004 37.2929 59.446 26.0274 55.2164 21.0798C57.2776 22.5539 59.1955 24.9698 60.8197 28.2182C63.632 33.843 65.4004 41.6835 65.4004 50.3984C65.4004 59.1134 63.632 66.9539 60.8197 72.5786ZM43.4722 79.2511C41.1039 77.726 38.94 75.4298 37.1063 72.4959C33.6011 66.8876 31.4004 59.0776 31.4004 50.3984C31.4004 41.7193 33.6011 33.9093 37.1063 28.301C38.94 25.367 41.1039 23.0709 43.4722 21.5458C38.1049 26.7105 34.4004 37.6892 34.4004 50.3984C34.4004 63.1077 38.1049 74.0864 43.4722 79.2511ZM57.3286 79.2511C59.6969 77.726 61.8608 75.4298 63.6945 72.4959C67.1997 66.8876 69.4004 59.0776 69.4004 50.3984C69.4004 41.7193 67.1997 33.9093 63.6945 28.301C61.8608 25.367 59.6969 23.0709 57.3286 21.5458C62.6958 26.7105 66.4004 37.6892 66.4004 50.3984C66.4004 63.1077 62.6958 74.0864 57.3286 79.2511ZM34.2298 72.4259C36.2319 75.0953 38.5806 77.2582 41.1665 78.7911C34.7685 73.4535 30.4004 62.7421 30.4004 50.3984C30.4004 38.0547 34.7685 27.3434 41.1665 22.0058C38.5806 23.5387 36.2319 25.7016 34.2298 28.371C30.0285 33.9728 27.4004 41.7573 27.4004 50.3984C27.4004 59.0395 30.0285 66.8241 34.2298 72.4259ZM66.571 72.4259C64.5689 75.0953 62.2201 77.2582 59.6343 78.7911C66.0322 73.4535 70.4004 62.7421 70.4004 50.3984C70.4004 38.0547 66.0322 27.3434 59.6343 22.0058C62.2201 23.5387 64.5689 25.7016 66.571 28.371C70.7723 33.9728 73.4004 41.7573 73.4004 50.3984C73.4004 59.0395 70.7723 66.8241 66.571 72.4259ZM38.6619 78.3162C29.668 73.3204 23.4004 62.758 23.4004 50.3984C23.4004 38.0389 29.668 27.4765 38.6619 22.4807C31.3443 27.9623 26.4004 38.4105 26.4004 50.3984C26.4004 62.3863 31.3443 72.8346 38.6619 78.3162ZM62.1388 78.3162C71.1327 73.3204 77.4004 62.758 77.4004 50.3984C77.4004 38.0389 71.1327 27.4765 62.1388 22.4806C69.4564 27.9623 74.4004 38.4105 74.4004 50.3984C74.4004 62.3863 69.4564 72.8346 62.1388 78.3162ZM19.4004 50.3984C19.4004 62.3467 26.16 72.7162 36.0637 77.8912C27.8805 72.3056 22.4004 62.0834 22.4004 50.3984C22.4004 38.7134 27.8805 28.4913 36.0637 22.9056C26.16 28.0807 19.4004 38.4502 19.4004 50.3984ZM81.4004 50.3984C81.4004 62.3467 74.6407 72.7162 64.7371 77.8912C72.9203 72.3056 78.4004 62.0834 78.4004 50.3984C78.4004 38.7135 72.9203 28.4913 64.7371 22.9056C74.6407 28.0807 81.4004 38.4502 81.4004 50.3984ZM52.2365 72.9018C52.9538 67.1636 53.4004 59.207 53.4004 50.3984C53.4004 41.5899 52.9538 33.6333 52.2365 27.8951C51.877 25.0189 51.4541 22.7385 50.9984 21.1966C50.9655 21.0854 50.9328 20.9793 50.9004 20.8781V79.9188C50.9328 79.8176 50.9655 79.7115 50.9984 79.6003C51.4541 78.0584 51.877 75.778 52.2365 72.9018ZM49.9004 20.8781V79.9188C49.8679 79.8176 49.8353 79.7115 49.8024 79.6003C49.3467 78.0584 48.9238 75.778 48.5642 72.9018C47.847 67.1636 47.4004 59.207 47.4004 50.3984C47.4004 41.5899 47.847 33.6333 48.5642 27.8951C48.9238 25.0189 49.3467 22.7385 49.8024 21.1966C49.8353 21.0854 49.8679 20.9793 49.9004 20.8781Z" stroke="#FB37FF" stroke-opacity="0.2" stroke-width="1.73333"/>
<path fill-rule="evenodd" clip-rule="evenodd" d="M50.4004 18.3984C32.7273 18.3984 18.4004 32.7253 18.4004 50.3984C18.4004 68.0715 32.7273 82.3984 50.4004 82.3984C68.0735 82.3984 82.4004 68.0715 82.4004 50.3984C82.4004 32.7253 68.0735 18.3984 50.4004 18.3984ZM50.4004 54.3984C64.4437 54.3984 76.3741 53.2677 80.6825 51.6948C80.3745 51.9918 79.9499 52.3128 79.3768 52.6515C77.8763 53.5385 75.6383 54.3719 72.7853 55.0852C67.0945 56.5078 59.1798 57.3984 50.4004 57.3984C41.621 57.3984 33.7063 56.5078 28.0155 55.0852C25.1624 54.3719 22.9245 53.5385 21.4239 52.6515C20.8508 52.3128 20.4263 51.9918 20.1183 51.6948C24.4266 53.2677 36.3571 54.3984 50.4004 54.3984ZM79.3768 48.1453C79.9499 48.4841 80.3745 48.8051 80.6825 49.1021C76.3741 47.5292 64.4437 46.3984 50.4004 46.3984C36.3571 46.3984 24.4266 47.5292 20.1183 49.1021C20.4263 48.8051 20.8508 48.4841 21.4239 48.1453C22.9245 47.2584 25.1624 46.425 28.0155 45.7117C33.7063 44.289 41.621 43.3984 50.4004 43.3984C59.1798 43.3984 67.0945 44.289 72.7853 45.7117C75.6383 46.425 77.8763 47.2584 79.3768 48.1453ZM80.1997 53.3198C79.9241 53.653 79.599 53.9871 79.2223 54.3211C77.7271 55.6467 75.5065 56.8862 72.6767 57.9474C67.0244 60.067 59.1488 61.3984 50.4004 61.3984C41.652 61.3984 33.7764 60.067 28.1241 57.9474C25.2943 56.8862 23.0737 55.6467 21.5785 54.3211C21.2018 53.9871 20.8767 53.653 20.6011 53.3198C25.2686 56.2932 36.8511 58.3984 50.4004 58.3984C63.9497 58.3984 75.5321 56.2932 80.1997 53.3198ZM80.1997 47.4771C79.9241 47.1439 79.599 46.8098 79.2223 46.4758C77.7271 45.1501 75.5065 43.9107 72.6767 42.8495C67.0244 40.7299 59.1488 39.3984 50.4004 39.3984C41.652 39.3984 33.7764 40.7299 28.1241 42.8495C25.2943 43.9107 23.0737 45.1501 21.5785 46.4758C21.2018 46.8098 20.8767 47.1439 20.6011 47.4771C25.2686 44.5037 36.8511 42.3984 50.4004 42.3984C63.9497 42.3984 75.5321 44.5037 80.1997 47.4771ZM72.5806 60.8177C75.829 59.1935 78.2449 57.2756 79.7191 55.2144C74.7714 59.444 63.5059 62.3984 50.4004 62.3984C37.2948 62.3984 26.0294 59.444 21.0817 55.2144C22.5558 57.2756 24.9718 59.1935 28.2202 60.8177C33.8449 63.6301 41.6854 65.3984 50.4004 65.3984C59.1154 65.3984 66.9559 63.6301 72.5806 60.8177ZM72.5806 39.9792C75.829 41.6034 78.2449 43.5212 79.7191 45.5825C74.7714 41.3528 63.5059 38.3984 50.4004 38.3984C37.2948 38.3984 26.0294 41.3528 21.0817 45.5825C22.5558 43.5212 24.9718 41.6034 28.2202 39.9792C33.8449 37.1668 41.6854 35.3984 50.4004 35.3984C59.1154 35.3984 66.9559 37.1668 72.5806 39.9792ZM79.253 57.3266C77.728 59.6949 75.4318 61.8588 72.4978 63.6926C66.8895 67.1978 59.0795 69.3984 50.4004 69.3984C41.7213 69.3984 33.9113 67.1978 28.303 63.6926C25.369 61.8588 23.0728 59.6949 21.5478 57.3266C26.7124 62.6939 37.6912 66.3984 50.4004 66.3984C63.1096 66.3984 74.0884 62.6939 79.253 57.3266ZM79.253 43.4703C77.728 41.102 75.4318 38.938 72.4978 37.1043C66.8895 33.5991 59.0795 31.3984 50.4004 31.3984C41.7213 31.3984 33.9113 33.5991 28.303 37.1043C25.369 38.938 23.0728 41.102 21.5478 43.4703C26.7124 38.103 37.6912 34.3984 50.4004 34.3984C63.1096 34.3984 74.0884 38.103 79.253 43.4703ZM72.4278 66.569C75.0972 64.5669 77.2602 62.2182 78.7931 59.6323C73.4554 66.0303 62.7441 70.3984 50.4004 70.3984C38.0567 70.3984 27.3453 66.0303 22.0077 59.6323C23.5406 62.2182 25.7035 64.5669 28.373 66.569C33.9747 70.7703 41.7593 73.3984 50.4004 73.3984C59.0415 73.3984 66.8261 70.7703 72.4278 66.569ZM72.4278 34.2279C75.0972 36.23 77.2602 38.5787 78.7931 41.1646C73.4554 34.7666 62.7441 30.3984 50.4004 30.3984C38.0567 30.3984 27.3453 34.7666 22.0077 41.1646C23.5406 38.5787 25.7035 36.23 28.373 34.2279C33.9747 30.0266 41.7593 27.3984 50.4004 27.3984C59.0415 27.3984 66.8261 30.0266 72.4278 34.2279ZM78.3182 62.1369C73.3223 71.1308 62.7599 77.3984 50.4004 77.3984C38.0409 77.3984 27.4785 71.1308 22.4826 62.1369C27.9642 69.4545 38.4125 74.3984 50.4004 74.3984C62.3883 74.3984 72.8366 69.4545 78.3182 62.1369ZM78.3182 38.66C73.3223 29.6661 62.7599 23.3984 50.4004 23.3984C38.0409 23.3984 27.4784 29.6661 22.4826 38.66C27.9642 31.3424 38.4125 26.3984 50.4004 26.3984C62.3883 26.3984 72.8366 31.3424 78.3182 38.66ZM50.4004 81.3984C62.3487 81.3984 72.7181 74.6388 77.8932 64.7351C72.3076 72.9183 62.0854 78.3984 50.4004 78.3984C38.7154 78.3984 28.4932 72.9183 22.9076 64.7351C28.0827 74.6388 38.4521 81.3984 50.4004 81.3984ZM50.4004 19.3984C62.3487 19.3984 72.7181 26.1581 77.8932 36.0618C72.3076 27.8786 62.0854 22.3984 50.4004 22.3984C38.7154 22.3984 28.4932 27.8786 22.9076 36.0618C28.0827 26.1581 38.4521 19.3984 50.4004 19.3984ZM72.9038 48.5623C67.1655 47.845 59.2089 47.3984 50.4004 47.3984C41.5919 47.3984 33.6353 47.845 27.897 48.5623C25.0209 48.9218 22.7404 49.3448 21.1985 49.8005C21.0874 49.8333 20.9813 49.866 20.8801 49.8984H79.9207C79.8195 49.866 79.7134 49.8333 79.6023 49.8005C78.0604 49.3448 75.7799 48.9218 72.9038 48.5623ZM20.8801 50.8984H79.9207C79.8195 50.9309 79.7134 50.9636 79.6023 50.9964C78.0604 51.4521 75.7799 51.8751 72.9038 52.2346C67.1655 52.9519 59.2089 53.3984 50.4004 53.3984C41.5919 53.3984 33.6353 52.9519 27.897 52.2346C25.0209 51.8751 22.7404 51.4521 21.1985 50.9964C21.0874 50.9636 20.9813 50.9309 20.8801 50.8984Z" stroke="#FB37FF" stroke-opacity="0.2" stroke-width="1.73333"/>
</g>
<g filter="url(#filter4_f_1571_1307)">
<path fill-rule="evenodd" clip-rule="evenodd" d="M82.4004 50.3984C82.4004 32.7253 68.0735 18.3984 50.4004 18.3984C32.7273 18.3984 18.4004 32.7253 18.4004 50.3984C18.4004 68.0715 32.7273 82.3984 50.4004 82.3984C68.0735 82.3984 82.4004 68.0715 82.4004 50.3984ZM46.4004 50.3984C46.4004 64.4417 47.5312 76.3722 49.104 80.6805C48.807 80.3725 48.486 79.948 48.1473 79.3749C47.2604 77.8743 46.4269 75.6364 45.7137 72.7833C44.291 67.0926 43.4004 59.1779 43.4004 50.3984C43.4004 41.619 44.291 33.7043 45.7137 28.0136C46.4269 25.1605 47.2604 22.9226 48.1473 21.422C48.486 20.8489 48.807 20.4244 49.104 20.1164C47.5312 24.4247 46.4004 36.3551 46.4004 50.3984ZM52.6535 79.3749C52.3147 79.948 51.9937 80.3725 51.6967 80.6805C53.2696 76.3722 54.4004 64.4417 54.4004 50.3984C54.4004 36.3552 53.2696 24.4247 51.6967 20.1164C51.9937 20.4244 52.3147 20.8489 52.6535 21.422C53.5404 22.9226 54.3738 25.1605 55.0871 28.0136C56.5098 33.7043 57.4004 41.619 57.4004 50.3984C57.4004 59.1779 56.5098 67.0926 55.0871 72.7833C54.3738 75.6364 53.5404 77.8743 52.6535 79.3749ZM47.479 80.1978C47.1458 79.9222 46.8117 79.5971 46.4777 79.2203C45.1521 77.7251 43.9126 75.5046 42.8514 72.6747C40.7318 67.0225 39.4004 59.1468 39.4004 50.3984C39.4004 41.65 40.7318 33.7744 42.8514 28.1221C43.9126 25.2923 45.1521 23.0717 46.4777 21.5766C46.8117 21.1998 47.1458 20.8747 47.479 20.5991C44.5056 25.2667 42.4004 36.8492 42.4004 50.3984C42.4004 63.9477 44.5056 75.5302 47.479 80.1978ZM53.3217 80.1978C53.6549 79.9222 53.9891 79.5971 54.3231 79.2203C55.6487 77.7251 56.8882 75.5046 57.9493 72.6747C60.0689 67.0225 61.4004 59.1468 61.4004 50.3984C61.4004 41.65 60.0689 33.7744 57.9493 28.1221C56.8882 25.2923 55.6487 23.0717 54.3231 21.5766C53.9891 21.1998 53.6549 20.8747 53.3217 20.5991C56.2952 25.2667 58.4004 36.8492 58.4004 50.3984C58.4004 63.9477 56.2952 75.5302 53.3217 80.1978ZM39.9811 72.5786C41.6053 75.8271 43.5232 78.243 45.5844 79.7171C41.3548 74.7694 38.4004 63.504 38.4004 50.3984C38.4004 37.2929 41.3548 26.0274 45.5844 21.0798C43.5232 22.5539 41.6053 24.9698 39.9811 28.2182C37.1687 33.843 35.4004 41.6835 35.4004 50.3984C35.4004 59.1134 37.1687 66.9539 39.9811 72.5786ZM60.8197 72.5786C59.1955 75.8271 57.2776 78.243 55.2164 79.7171C59.446 74.7694 62.4004 63.504 62.4004 50.3984C62.4004 37.2929 59.446 26.0274 55.2164 21.0798C57.2776 22.5539 59.1955 24.9698 60.8197 28.2182C63.632 33.843 65.4004 41.6835 65.4004 50.3984C65.4004 59.1134 63.632 66.9539 60.8197 72.5786ZM43.4722 79.2511C41.1039 77.726 38.94 75.4298 37.1063 72.4959C33.6011 66.8876 31.4004 59.0776 31.4004 50.3984C31.4004 41.7193 33.6011 33.9093 37.1063 28.301C38.94 25.367 41.1039 23.0709 43.4722 21.5458C38.1049 26.7105 34.4004 37.6892 34.4004 50.3984C34.4004 63.1077 38.1049 74.0864 43.4722 79.2511ZM57.3286 79.2511C59.6969 77.726 61.8608 75.4298 63.6945 72.4959C67.1997 66.8876 69.4004 59.0776 69.4004 50.3984C69.4004 41.7193 67.1997 33.9093 63.6945 28.301C61.8608 25.367 59.6969 23.0709 57.3286 21.5458C62.6958 26.7105 66.4004 37.6892 66.4004 50.3984C66.4004 63.1077 62.6958 74.0864 57.3286 79.2511ZM34.2298 72.4259C36.2319 75.0953 38.5806 77.2582 41.1665 78.7911C34.7685 73.4535 30.4004 62.7421 30.4004 50.3984C30.4004 38.0547 34.7685 27.3434 41.1665 22.0058C38.5806 23.5387 36.2319 25.7016 34.2298 28.371C30.0285 33.9728 27.4004 41.7573 27.4004 50.3984C27.4004 59.0395 30.0285 66.8241 34.2298 72.4259ZM66.571 72.4259C64.5689 75.0953 62.2201 77.2582 59.6343 78.7911C66.0322 73.4535 70.4004 62.7421 70.4004 50.3984C70.4004 38.0547 66.0322 27.3434 59.6343 22.0058C62.2201 23.5387 64.5689 25.7016 66.571 28.371C70.7723 33.9728 73.4004 41.7573 73.4004 50.3984C73.4004 59.0395 70.7723 66.8241 66.571 72.4259ZM38.6619 78.3162C29.668 73.3204 23.4004 62.758 23.4004 50.3984C23.4004 38.0389 29.668 27.4765 38.6619 22.4807C31.3443 27.9623 26.4004 38.4105 26.4004 50.3984C26.4004 62.3863 31.3443 72.8346 38.6619 78.3162ZM62.1388 78.3162C71.1327 73.3204 77.4004 62.758 77.4004 50.3984C77.4004 38.0389 71.1327 27.4765 62.1388 22.4806C69.4564 27.9623 74.4004 38.4105 74.4004 50.3984C74.4004 62.3863 69.4564 72.8346 62.1388 78.3162ZM19.4004 50.3984C19.4004 62.3467 26.16 72.7162 36.0637 77.8912C27.8805 72.3056 22.4004 62.0834 22.4004 50.3984C22.4004 38.7134 27.8805 28.4913 36.0637 22.9056C26.16 28.0807 19.4004 38.4502 19.4004 50.3984ZM81.4004 50.3984C81.4004 62.3467 74.6407 72.7162 64.7371 77.8912C72.9203 72.3056 78.4004 62.0834 78.4004 50.3984C78.4004 38.7135 72.9203 28.4913 64.7371 22.9056C74.6407 28.0807 81.4004 38.4502 81.4004 50.3984ZM52.2365 72.9018C52.9538 67.1636 53.4004 59.207 53.4004 50.3984C53.4004 41.5899 52.9538 33.6333 52.2365 27.8951C51.877 25.0189 51.4541 22.7385 50.9984 21.1966C50.9655 21.0854 50.9328 20.9793 50.9004 20.8781V79.9188C50.9328 79.8176 50.9655 79.7115 50.9984 79.6003C51.4541 78.0584 51.877 75.778 52.2365 72.9018ZM49.9004 20.8781V79.9188C49.8679 79.8176 49.8353 79.7115 49.8024 79.6003C49.3467 78.0584 48.9238 75.778 48.5642 72.9018C47.847 67.1636 47.4004 59.207 47.4004 50.3984C47.4004 41.5899 47.847 33.6333 48.5642 27.8951C48.9238 25.0189 49.3467 22.7385 49.8024 21.1966C49.8353 21.0854 49.8679 20.9793 49.9004 20.8781Z" stroke="#FB37FF" stroke-width="1.06667"/>
<path fill-rule="evenodd" clip-rule="evenodd" d="M50.4004 18.3984C32.7273 18.3984 18.4004 32.7253 18.4004 50.3984C18.4004 68.0715 32.7273 82.3984 50.4004 82.3984C68.0735 82.3984 82.4004 68.0715 82.4004 50.3984C82.4004 32.7253 68.0735 18.3984 50.4004 18.3984ZM50.4004 54.3984C64.4437 54.3984 76.3741 53.2677 80.6825 51.6948C80.3745 51.9918 79.9499 52.3128 79.3768 52.6515C77.8763 53.5385 75.6383 54.3719 72.7853 55.0852C67.0945 56.5078 59.1798 57.3984 50.4004 57.3984C41.621 57.3984 33.7063 56.5078 28.0155 55.0852C25.1624 54.3719 22.9245 53.5385 21.4239 52.6515C20.8508 52.3128 20.4263 51.9918 20.1183 51.6948C24.4266 53.2677 36.3571 54.3984 50.4004 54.3984ZM79.3768 48.1453C79.9499 48.4841 80.3745 48.8051 80.6825 49.1021C76.3741 47.5292 64.4437 46.3984 50.4004 46.3984C36.3571 46.3984 24.4266 47.5292 20.1183 49.1021C20.4263 48.8051 20.8508 48.4841 21.4239 48.1453C22.9245 47.2584 25.1624 46.425 28.0155 45.7117C33.7063 44.289 41.621 43.3984 50.4004 43.3984C59.1798 43.3984 67.0945 44.289 72.7853 45.7117C75.6383 46.425 77.8763 47.2584 79.3768 48.1453ZM80.1997 53.3198C79.9241 53.653 79.599 53.9871 79.2223 54.3211C77.7271 55.6467 75.5065 56.8862 72.6767 57.9474C67.0244 60.067 59.1488 61.3984 50.4004 61.3984C41.652 61.3984 33.7764 60.067 28.1241 57.9474C25.2943 56.8862 23.0737 55.6467 21.5785 54.3211C21.2018 53.9871 20.8767 53.653 20.6011 53.3198C25.2686 56.2932 36.8511 58.3984 50.4004 58.3984C63.9497 58.3984 75.5321 56.2932 80.1997 53.3198ZM80.1997 47.4771C79.9241 47.1439 79.599 46.8098 79.2223 46.4758C77.7271 45.1501 75.5065 43.9107 72.6767 42.8495C67.0244 40.7299 59.1488 39.3984 50.4004 39.3984C41.652 39.3984 33.7764 40.7299 28.1241 42.8495C25.2943 43.9107 23.0737 45.1501 21.5785 46.4758C21.2018 46.8098 20.8767 47.1439 20.6011 47.4771C25.2686 44.5037 36.8511 42.3984 50.4004 42.3984C63.9497 42.3984 75.5321 44.5037 80.1997 47.4771ZM72.5806 60.8177C75.829 59.1935 78.2449 57.2756 79.7191 55.2144C74.7714 59.444 63.5059 62.3984 50.4004 62.3984C37.2948 62.3984 26.0294 59.444 21.0817 55.2144C22.5558 57.2756 24.9718 59.1935 28.2202 60.8177C33.8449 63.6301 41.6854 65.3984 50.4004 65.3984C59.1154 65.3984 66.9559 63.6301 72.5806 60.8177ZM72.5806 39.9792C75.829 41.6034 78.2449 43.5212 79.7191 45.5825C74.7714 41.3528 63.5059 38.3984 50.4004 38.3984C37.2948 38.3984 26.0294 41.3528 21.0817 45.5825C22.5558 43.5212 24.9718 41.6034 28.2202 39.9792C33.8449 37.1668 41.6854 35.3984 50.4004 35.3984C59.1154 35.3984 66.9559 37.1668 72.5806 39.9792ZM79.253 57.3266C77.728 59.6949 75.4318 61.8588 72.4978 63.6926C66.8895 67.1978 59.0795 69.3984 50.4004 69.3984C41.7213 69.3984 33.9113 67.1978 28.303 63.6926C25.369 61.8588 23.0728 59.6949 21.5478 57.3266C26.7124 62.6939 37.6912 66.3984 50.4004 66.3984C63.1096 66.3984 74.0884 62.6939 79.253 57.3266ZM79.253 43.4703C77.728 41.102 75.4318 38.938 72.4978 37.1043C66.8895 33.5991 59.0795 31.3984 50.4004 31.3984C41.7213 31.3984 33.9113 33.5991 28.303 37.1043C25.369 38.938 23.0728 41.102 21.5478 43.4703C26.7124 38.103 37.6912 34.3984 50.4004 34.3984C63.1096 34.3984 74.0884 38.103 79.253 43.4703ZM72.4278 66.569C75.0972 64.5669 77.2602 62.2182 78.7931 59.6323C73.4554 66.0303 62.7441 70.3984 50.4004 70.3984C38.0567 70.3984 27.3453 66.0303 22.0077 59.6323C23.5406 62.2182 25.7035 64.5669 28.373 66.569C33.9747 70.7703 41.7593 73.3984 50.4004 73.3984C59.0415 73.3984 66.8261 70.7703 72.4278 66.569ZM72.4278 34.2279C75.0972 36.23 77.2602 38.5787 78.7931 41.1646C73.4554 34.7666 62.7441 30.3984 50.4004 30.3984C38.0567 30.3984 27.3453 34.7666 22.0077 41.1646C23.5406 38.5787 25.7035 36.23 28.373 34.2279C33.9747 30.0266 41.7593 27.3984 50.4004 27.3984C59.0415 27.3984 66.8261 30.0266 72.4278 34.2279ZM78.3182 62.1369C73.3223 71.1308 62.7599 77.3984 50.4004 77.3984C38.0409 77.3984 27.4785 71.1308 22.4826 62.1369C27.9642 69.4545 38.4125 74.3984 50.4004 74.3984C62.3883 74.3984 72.8366 69.4545 78.3182 62.1369ZM78.3182 38.66C73.3223 29.6661 62.7599 23.3984 50.4004 23.3984C38.0409 23.3984 27.4784 29.6661 22.4826 38.66C27.9642 31.3424 38.4125 26.3984 50.4004 26.3984C62.3883 26.3984 72.8366 31.3424 78.3182 38.66ZM50.4004 81.3984C62.3487 81.3984 72.7181 74.6388 77.8932 64.7351C72.3076 72.9183 62.0854 78.3984 50.4004 78.3984C38.7154 78.3984 28.4932 72.9183 22.9076 64.7351C28.0827 74.6388 38.4521 81.3984 50.4004 81.3984ZM50.4004 19.3984C62.3487 19.3984 72.7181 26.1581 77.8932 36.0618C72.3076 27.8786 62.0854 22.3984 50.4004 22.3984C38.7154 22.3984 28.4932 27.8786 22.9076 36.0618C28.0827 26.1581 38.4521 19.3984 50.4004 19.3984ZM72.9038 48.5623C67.1655 47.845 59.2089 47.3984 50.4004 47.3984C41.5919 47.3984 33.6353 47.845 27.897 48.5623C25.0209 48.9218 22.7404 49.3448 21.1985 49.8005C21.0874 49.8333 20.9813 49.866 20.8801 49.8984H79.9207C79.8195 49.866 79.7134 49.8333 79.6023 49.8005C78.0604 49.3448 75.7799 48.9218 72.9038 48.5623ZM20.8801 50.8984H79.9207C79.8195 50.9309 79.7134 50.9636 79.6023 50.9964C78.0604 51.4521 75.7799 51.8751 72.9038 52.2346C67.1655 52.9519 59.2089 53.3984 50.4004 53.3984C41.5919 53.3984 33.6353 52.9519 27.897 52.2346C25.0209 51.8751 22.7404 51.4521 21.1985 50.9964C21.0874 50.9636 20.9813 50.9309 20.8801 50.8984Z" stroke="#FB37FF" stroke-width="1.06667"/>
</g>
<g filter="url(#filter5_f_1571_1307)">
<path fill-rule="evenodd" clip-rule="evenodd" d="M82.4004 50.3984C82.4004 32.7253 68.0735 18.3984 50.4004 18.3984C32.7273 18.3984 18.4004 32.7253 18.4004 50.3984C18.4004 68.0715 32.7273 82.3984 50.4004 82.3984C68.0735 82.3984 82.4004 68.0715 82.4004 50.3984ZM46.4004 50.3984C46.4004 64.4417 47.5312 76.3722 49.104 80.6805C48.807 80.3725 48.486 79.948 48.1473 79.3749C47.2604 77.8743 46.4269 75.6364 45.7137 72.7833C44.291 67.0926 43.4004 59.1779 43.4004 50.3984C43.4004 41.619 44.291 33.7043 45.7137 28.0136C46.4269 25.1605 47.2604 22.9226 48.1473 21.422C48.486 20.8489 48.807 20.4244 49.104 20.1164C47.5312 24.4247 46.4004 36.3551 46.4004 50.3984ZM52.6535 79.3749C52.3147 79.948 51.9937 80.3725 51.6967 80.6805C53.2696 76.3722 54.4004 64.4417 54.4004 50.3984C54.4004 36.3552 53.2696 24.4247 51.6967 20.1164C51.9937 20.4244 52.3147 20.8489 52.6535 21.422C53.5404 22.9226 54.3738 25.1605 55.0871 28.0136C56.5098 33.7043 57.4004 41.619 57.4004 50.3984C57.4004 59.1779 56.5098 67.0926 55.0871 72.7833C54.3738 75.6364 53.5404 77.8743 52.6535 79.3749ZM47.479 80.1978C47.1458 79.9222 46.8117 79.5971 46.4777 79.2203C45.1521 77.7251 43.9126 75.5046 42.8514 72.6747C40.7318 67.0225 39.4004 59.1468 39.4004 50.3984C39.4004 41.65 40.7318 33.7744 42.8514 28.1221C43.9126 25.2923 45.1521 23.0717 46.4777 21.5766C46.8117 21.1998 47.1458 20.8747 47.479 20.5991C44.5056 25.2667 42.4004 36.8492 42.4004 50.3984C42.4004 63.9477 44.5056 75.5302 47.479 80.1978ZM53.3217 80.1978C53.6549 79.9222 53.9891 79.5971 54.3231 79.2203C55.6487 77.7251 56.8882 75.5046 57.9493 72.6747C60.0689 67.0225 61.4004 59.1468 61.4004 50.3984C61.4004 41.65 60.0689 33.7744 57.9493 28.1221C56.8882 25.2923 55.6487 23.0717 54.3231 21.5766C53.9891 21.1998 53.6549 20.8747 53.3217 20.5991C56.2952 25.2667 58.4004 36.8492 58.4004 50.3984C58.4004 63.9477 56.2952 75.5302 53.3217 80.1978ZM39.9811 72.5786C41.6053 75.8271 43.5232 78.243 45.5844 79.7171C41.3548 74.7694 38.4004 63.504 38.4004 50.3984C38.4004 37.2929 41.3548 26.0274 45.5844 21.0798C43.5232 22.5539 41.6053 24.9698 39.9811 28.2182C37.1687 33.843 35.4004 41.6835 35.4004 50.3984C35.4004 59.1134 37.1687 66.9539 39.9811 72.5786ZM60.8197 72.5786C59.1955 75.8271 57.2776 78.243 55.2164 79.7171C59.446 74.7694 62.4004 63.504 62.4004 50.3984C62.4004 37.2929 59.446 26.0274 55.2164 21.0798C57.2776 22.5539 59.1955 24.9698 60.8197 28.2182C63.632 33.843 65.4004 41.6835 65.4004 50.3984C65.4004 59.1134 63.632 66.9539 60.8197 72.5786ZM43.4722 79.2511C41.1039 77.726 38.94 75.4298 37.1063 72.4959C33.6011 66.8876 31.4004 59.0776 31.4004 50.3984C31.4004 41.7193 33.6011 33.9093 37.1063 28.301C38.94 25.367 41.1039 23.0709 43.4722 21.5458C38.1049 26.7105 34.4004 37.6892 34.4004 50.3984C34.4004 63.1077 38.1049 74.0864 43.4722 79.2511ZM57.3286 79.2511C59.6969 77.726 61.8608 75.4298 63.6945 72.4959C67.1997 66.8876 69.4004 59.0776 69.4004 50.3984C69.4004 41.7193 67.1997 33.9093 63.6945 28.301C61.8608 25.367 59.6969 23.0709 57.3286 21.5458C62.6958 26.7105 66.4004 37.6892 66.4004 50.3984C66.4004 63.1077 62.6958 74.0864 57.3286 79.2511ZM34.2298 72.4259C36.2319 75.0953 38.5806 77.2582 41.1665 78.7911C34.7685 73.4535 30.4004 62.7421 30.4004 50.3984C30.4004 38.0547 34.7685 27.3434 41.1665 22.0058C38.5806 23.5387 36.2319 25.7016 34.2298 28.371C30.0285 33.9728 27.4004 41.7573 27.4004 50.3984C27.4004 59.0395 30.0285 66.8241 34.2298 72.4259ZM66.571 72.4259C64.5689 75.0953 62.2201 77.2582 59.6343 78.7911C66.0322 73.4535 70.4004 62.7421 70.4004 50.3984C70.4004 38.0547 66.0322 27.3434 59.6343 22.0058C62.2201 23.5387 64.5689 25.7016 66.571 28.371C70.7723 33.9728 73.4004 41.7573 73.4004 50.3984C73.4004 59.0395 70.7723 66.8241 66.571 72.4259ZM38.6619 78.3162C29.668 73.3204 23.4004 62.758 23.4004 50.3984C23.4004 38.0389 29.668 27.4765 38.6619 22.4807C31.3443 27.9623 26.4004 38.4105 26.4004 50.3984C26.4004 62.3863 31.3443 72.8346 38.6619 78.3162ZM62.1388 78.3162C71.1327 73.3204 77.4004 62.758 77.4004 50.3984C77.4004 38.0389 71.1327 27.4765 62.1388 22.4806C69.4564 27.9623 74.4004 38.4105 74.4004 50.3984C74.4004 62.3863 69.4564 72.8346 62.1388 78.3162ZM19.4004 50.3984C19.4004 62.3467 26.16 72.7162 36.0637 77.8912C27.8805 72.3056 22.4004 62.0834 22.4004 50.3984C22.4004 38.7134 27.8805 28.4913 36.0637 22.9056C26.16 28.0807 19.4004 38.4502 19.4004 50.3984ZM81.4004 50.3984C81.4004 62.3467 74.6407 72.7162 64.7371 77.8912C72.9203 72.3056 78.4004 62.0834 78.4004 50.3984C78.4004 38.7135 72.9203 28.4913 64.7371 22.9056C74.6407 28.0807 81.4004 38.4502 81.4004 50.3984ZM52.2365 72.9018C52.9538 67.1636 53.4004 59.207 53.4004 50.3984C53.4004 41.5899 52.9538 33.6333 52.2365 27.8951C51.877 25.0189 51.4541 22.7385 50.9984 21.1966C50.9655 21.0854 50.9328 20.9793 50.9004 20.8781V79.9188C50.9328 79.8176 50.9655 79.7115 50.9984 79.6003C51.4541 78.0584 51.877 75.778 52.2365 72.9018ZM49.9004 20.8781V79.9188C49.8679 79.8176 49.8353 79.7115 49.8024 79.6003C49.3467 78.0584 48.9238 75.778 48.5642 72.9018C47.847 67.1636 47.4004 59.207 47.4004 50.3984C47.4004 41.5899 47.847 33.6333 48.5642 27.8951C48.9238 25.0189 49.3467 22.7385 49.8024 21.1966C49.8353 21.0854 49.8679 20.9793 49.9004 20.8781Z" stroke="white" stroke-width="0.533333"/>
<path fill-rule="evenodd" clip-rule="evenodd" d="M50.4004 18.3984C32.7273 18.3984 18.4004 32.7253 18.4004 50.3984C18.4004 68.0715 32.7273 82.3984 50.4004 82.3984C68.0735 82.3984 82.4004 68.0715 82.4004 50.3984C82.4004 32.7253 68.0735 18.3984 50.4004 18.3984ZM50.4004 54.3984C64.4437 54.3984 76.3741 53.2677 80.6825 51.6948C80.3745 51.9918 79.9499 52.3128 79.3768 52.6515C77.8763 53.5385 75.6383 54.3719 72.7853 55.0852C67.0945 56.5078 59.1798 57.3984 50.4004 57.3984C41.621 57.3984 33.7063 56.5078 28.0155 55.0852C25.1624 54.3719 22.9245 53.5385 21.4239 52.6515C20.8508 52.3128 20.4263 51.9918 20.1183 51.6948C24.4266 53.2677 36.3571 54.3984 50.4004 54.3984ZM79.3768 48.1453C79.9499 48.4841 80.3745 48.8051 80.6825 49.1021C76.3741 47.5292 64.4437 46.3984 50.4004 46.3984C36.3571 46.3984 24.4266 47.5292 20.1183 49.1021C20.4263 48.8051 20.8508 48.4841 21.4239 48.1453C22.9245 47.2584 25.1624 46.425 28.0155 45.7117C33.7063 44.289 41.621 43.3984 50.4004 43.3984C59.1798 43.3984 67.0945 44.289 72.7853 45.7117C75.6383 46.425 77.8763 47.2584 79.3768 48.1453ZM80.1997 53.3198C79.9241 53.653 79.599 53.9871 79.2223 54.3211C77.7271 55.6467 75.5065 56.8862 72.6767 57.9474C67.0244 60.067 59.1488 61.3984 50.4004 61.3984C41.652 61.3984 33.7764 60.067 28.1241 57.9474C25.2943 56.8862 23.0737 55.6467 21.5785 54.3211C21.2018 53.9871 20.8767 53.653 20.6011 53.3198C25.2686 56.2932 36.8511 58.3984 50.4004 58.3984C63.9497 58.3984 75.5321 56.2932 80.1997 53.3198ZM80.1997 47.4771C79.9241 47.1439 79.599 46.8098 79.2223 46.4758C77.7271 45.1501 75.5065 43.9107 72.6767 42.8495C67.0244 40.7299 59.1488 39.3984 50.4004 39.3984C41.652 39.3984 33.7764 40.7299 28.1241 42.8495C25.2943 43.9107 23.0737 45.1501 21.5785 46.4758C21.2018 46.8098 20.8767 47.1439 20.6011 47.4771C25.2686 44.5037 36.8511 42.3984 50.4004 42.3984C63.9497 42.3984 75.5321 44.5037 80.1997 47.4771ZM72.5806 60.8177C75.829 59.1935 78.2449 57.2756 79.7191 55.2144C74.7714 59.444 63.5059 62.3984 50.4004 62.3984C37.2948 62.3984 26.0294 59.444 21.0817 55.2144C22.5558 57.2756 24.9718 59.1935 28.2202 60.8177C33.8449 63.6301 41.6854 65.3984 50.4004 65.3984C59.1154 65.3984 66.9559 63.6301 72.5806 60.8177ZM72.5806 39.9792C75.829 41.6034 78.2449 43.5212 79.7191 45.5825C74.7714 41.3528 63.5059 38.3984 50.4004 38.3984C37.2948 38.3984 26.0294 41.3528 21.0817 45.5825C22.5558 43.5212 24.9718 41.6034 28.2202 39.9792C33.8449 37.1668 41.6854 35.3984 50.4004 35.3984C59.1154 35.3984 66.9559 37.1668 72.5806 39.9792ZM79.253 57.3266C77.728 59.6949 75.4318 61.8588 72.4978 63.6926C66.8895 67.1978 59.0795 69.3984 50.4004 69.3984C41.7213 69.3984 33.9113 67.1978 28.303 63.6926C25.369 61.8588 23.0728 59.6949 21.5478 57.3266C26.7124 62.6939 37.6912 66.3984 50.4004 66.3984C63.1096 66.3984 74.0884 62.6939 79.253 57.3266ZM79.253 43.4703C77.728 41.102 75.4318 38.938 72.4978 37.1043C66.8895 33.5991 59.0795 31.3984 50.4004 31.3984C41.7213 31.3984 33.9113 33.5991 28.303 37.1043C25.369 38.938 23.0728 41.102 21.5478 43.4703C26.7124 38.103 37.6912 34.3984 50.4004 34.3984C63.1096 34.3984 74.0884 38.103 79.253 43.4703ZM72.4278 66.569C75.0972 64.5669 77.2602 62.2182 78.7931 59.6323C73.4554 66.0303 62.7441 70.3984 50.4004 70.3984C38.0567 70.3984 27.3453 66.0303 22.0077 59.6323C23.5406 62.2182 25.7035 64.5669 28.373 66.569C33.9747 70.7703 41.7593 73.3984 50.4004 73.3984C59.0415 73.3984 66.8261 70.7703 72.4278 66.569ZM72.4278 34.2279C75.0972 36.23 77.2602 38.5787 78.7931 41.1646C73.4554 34.7666 62.7441 30.3984 50.4004 30.3984C38.0567 30.3984 27.3453 34.7666 22.0077 41.1646C23.5406 38.5787 25.7035 36.23 28.373 34.2279C33.9747 30.0266 41.7593 27.3984 50.4004 27.3984C59.0415 27.3984 66.8261 30.0266 72.4278 34.2279ZM78.3182 62.1369C73.3223 71.1308 62.7599 77.3984 50.4004 77.3984C38.0409 77.3984 27.4785 71.1308 22.4826 62.1369C27.9642 69.4545 38.4125 74.3984 50.4004 74.3984C62.3883 74.3984 72.8366 69.4545 78.3182 62.1369ZM78.3182 38.66C73.3223 29.6661 62.7599 23.3984 50.4004 23.3984C38.0409 23.3984 27.4784 29.6661 22.4826 38.66C27.9642 31.3424 38.4125 26.3984 50.4004 26.3984C62.3883 26.3984 72.8366 31.3424 78.3182 38.66ZM50.4004 81.3984C62.3487 81.3984 72.7181 74.6388 77.8932 64.7351C72.3076 72.9183 62.0854 78.3984 50.4004 78.3984C38.7154 78.3984 28.4932 72.9183 22.9076 64.7351C28.0827 74.6388 38.4521 81.3984 50.4004 81.3984ZM50.4004 19.3984C62.3487 19.3984 72.7181 26.1581 77.8932 36.0618C72.3076 27.8786 62.0854 22.3984 50.4004 22.3984C38.7154 22.3984 28.4932 27.8786 22.9076 36.0618C28.0827 26.1581 38.4521 19.3984 50.4004 19.3984ZM72.9038 48.5623C67.1655 47.845 59.2089 47.3984 50.4004 47.3984C41.5919 47.3984 33.6353 47.845 27.897 48.5623C25.0209 48.9218 22.7404 49.3448 21.1985 49.8005C21.0874 49.8333 20.9813 49.866 20.8801 49.8984H79.9207C79.8195 49.866 79.7134 49.8333 79.6023 49.8005C78.0604 49.3448 75.7799 48.9218 72.9038 48.5623ZM20.8801 50.8984H79.9207C79.8195 50.9309 79.7134 50.9636 79.6023 50.9964C78.0604 51.4521 75.7799 51.8751 72.9038 52.2346C67.1655 52.9519 59.2089 53.3984 50.4004 53.3984C41.5919 53.3984 33.6353 52.9519 27.897 52.2346C25.0209 51.8751 22.7404 51.4521 21.1985 50.9964C21.0874 50.9636 20.9813 50.9309 20.8801 50.8984Z" stroke="white" stroke-width="0.533333"/>
</g>
<defs>
<filter id="filter0_f_1571_1307" x="0.32" y="0.32" width="100.161" height="100.157" filterUnits="userSpaceOnUse" color-interpolation-filters="sRGB">
<feFlood flood-opacity="0" result="BackgroundImageFix"/>
<feBlend mode="normal" in="SourceGraphic" in2="BackgroundImageFix" result="shape"/>
<feGaussianBlur stdDeviation="5.84" result="effect1_foregroundBlur_1571_1307"/>
</filter>
<filter id="filter1_f_1571_1307" x="5.8532" y="5.85125" width="89.0944" height="89.0944" filterUnits="userSpaceOnUse" color-interpolation-filters="sRGB">
<feFlood flood-opacity="0" result="BackgroundImageFix"/>
<feBlend mode="normal" in="SourceGraphic" in2="BackgroundImageFix" result="shape"/>
<feGaussianBlur stdDeviation="5.84" result="effect1_foregroundBlur_1571_1307"/>
</filter>
<filter id="filter2_f_1571_1307" x="13.3742" y="13.3723" width="74.0523" height="74.0523" filterUnits="userSpaceOnUse" color-interpolation-filters="sRGB">
<feFlood flood-opacity="0" result="BackgroundImageFix"/>
<feBlend mode="normal" in="SourceGraphic" in2="BackgroundImageFix" result="shape"/>
<feGaussianBlur stdDeviation="1.94667" result="effect1_foregroundBlur_1571_1307"/>
</filter>
<filter id="filter3_ddi_1571_1307" x="12.4719" y="16.3633" width="75.857" height="75.857" filterUnits="userSpaceOnUse" color-interpolation-filters="sRGB">
<feFlood flood-opacity="0" result="BackgroundImageFix"/>
<feColorMatrix in="SourceAlpha" type="matrix" values="0 0 0 0 0 0 0 0 0 0 0 0 0 0 0 0 0 0 127 0" result="hardAlpha"/>
<feOffset dy="1.73333"/>
<feGaussianBlur stdDeviation="0.666667"/>
<feColorMatrix type="matrix" values="0 0 0 0 0.3 0 0 0 0 0 0 0 0 0 0.26 0 0 0 0.7 0"/>
<feBlend mode="multiply" in2="BackgroundImageFix" result="effect1_dropShadow_1571_1307"/>
<feColorMatrix in="SourceAlpha" type="matrix" values="0 0 0 0 0 0 0 0 0 0 0 0 0 0 0 0 0 0 127 0" result="hardAlpha"/>
<feOffset dy="3.89333"/>
<feGaussianBlur stdDeviation="2.53067"/>
<feColorMatrix type="matrix" values="0 0 0 0 0.6 0 0 0 0 0 0 0 0 0 0.6 0 0 0 1 0"/>
<feBlend mode="color-dodge" in2="effect1_dropShadow_1571_1307" result="effect2_dropShadow_1571_1307"/>
<feBlend mode="normal" in="SourceGraphic" in2="effect2_dropShadow_1571_1307" result="shape"/>
<feColorMatrix in="SourceAlpha" type="matrix" values="0 0 0 0 0 0 0 0 0 0 0 0 0 0 0 0 0 0 127 0" result="hardAlpha"/>
<feOffset dx="-0.173333" dy="0.346667"/>
<feGaussianBlur stdDeviation="0.0866667"/>
<feComposite in2="hardAlpha" operator="arithmetic" k2="-1" k3="1"/>
<feColorMatrix type="matrix" values="0 0 0 0 1 0 0 0 0 1 0 0 0 0 1 0 0 0 0.5 0"/>
<feBlend mode="normal" in2="shape" result="effect3_innerShadow_1571_1307"/>
</filter>
<filter id="filter4_f_1571_1307" x="17.6005" y="17.6005" width="65.5997" height="65.5958" filterUnits="userSpaceOnUse" color-interpolation-filters="sRGB">
<feFlood flood-opacity="0" result="BackgroundImageFix"/>
<feBlend mode="normal" in="SourceGraphic" in2="BackgroundImageFix" result="shape"/>
<feGaussianBlur stdDeviation="0.133333" result="effect1_foregroundBlur_1571_1307"/>
</filter>
<filter id="filter5_f_1571_1307" x="17.955" y="17.955" width="64.8907" height="64.8868" filterUnits="userSpaceOnUse" color-interpolation-filters="sRGB">
<feFlood flood-opacity="0" result="BackgroundImageFix"/>
<feBlend mode="normal" in="SourceGraphic" in2="BackgroundImageFix" result="shape"/>
<feGaussianBlur stdDeviation="0.0888889" result="effect1_foregroundBlur_1571_1307"/>
</filter>
</defs>
</svg>
